<?xml version="1.0" encoding="utf-8"?>
<svg version="1.1" xmlns:xlink="http://www.w3.org/1999/xlink" width="50px" height="43px" xmlns="http://www.w3.org/2000/svg">
  <g transform="matrix(1 0 0 1 -606 -558 )">
    <path d="M 17.8571428571429 4  L 17.8571428571429 8  L 32.1428571428571 8  L 32.1428571428571 4  L 17.8571428571429 4  Z M 6.25 7.16666666666667  L 8 7.16666666666667  L 8 43  L 6.25 43  C 4.53869047619048 43  3.06919642857143 42.3841145833333  1.84151785714286 41.15234375  C 0.613839285714286 39.9205729166667  0 38.4461805555556  0 36.7291666666667  L 0 13.4375  C 0 11.7204861111111  0.613839285714286 10.24609375  1.84151785714286 9.01432291666666  C 3.06919642857143 7.78255208333333  4.53869047619048 7.16666666666667  6.25 7.16666666666667  Z M 35.7142857142857 7.16666666666667  L 39 7.16666666666667  L 39 43  L 11 43  L 11 7.16666666666667  L 14.2857142857143 7.16666666666667  L 14.2857142857143 2.6875  C 14.2857142857143 1.94097222222222  14.546130952381 1.30642361111111  15.0669642857143 0.783854166666665  C 15.5877976190476 0.26128472222222  16.2202380952381 0  16.9642857142857 0  L 33.0357142857143 0  C 33.7797619047619 0  34.4122023809524 0.26128472222222  34.9330357142857 0.783854166666665  C 35.4538690476191 1.30642361111111  35.7142857142857 1.94097222222222  35.7142857142857 2.6875  L 35.7142857142857 7.16666666666667  Z M 48.1584821428571 9.01432291666666  C 49.3861607142857 10.24609375  50 11.7204861111111  50 13.4375  L 50 36.7291666666667  C 50 38.4461805555556  49.3861607142857 39.9205729166667  48.1584821428571 41.15234375  C 46.9308035714286 42.3841145833333  45.4613095238095 43  43.75 43  L 42 43  L 42 7.16666666666667  L 43.75 7.16666666666667  C 45.4613095238095 7.16666666666667  46.9308035714286 7.78255208333333  48.1584821428571 9.01432291666666  Z " fill-rule="nonzero" fill="#ffffff" stroke="none" transform="matrix(1 0 0 1 606 558 )" />
  </g>
</svg>