<?xml version="1.0" encoding="utf-8"?>
<svg version="1.1" xmlns:xlink="http://www.w3.org/1999/xlink" width="58px" height="46px" xmlns="http://www.w3.org/2000/svg">
  <g transform="matrix(1 0 0 1 -1095 -558 )">
    <path d="M 30.2083333333333 26.6236979166667  L 44.6579861111111 21.203125  L 45.1111111111111 30.6666666666667  C 45.1782407407407 32.0442708333333  44.490162037037 33.3220486111111  43.046875 34.5  C 41.603587962963 35.6779513888889  39.6316550925926 36.611328125  37.1310763888889 37.3001302083333  C 34.6304976851852 37.9889322916667  31.9201388888889 38.3333333333333  29 38.3333333333333  C 26.0798611111111 38.3333333333333  23.3695023148148 37.9889322916667  20.8689236111111 37.3001302083333  C 18.3683449074074 36.611328125  16.396412037037 35.6779513888889  14.953125 34.5  C 13.509837962963 33.3220486111111  12.8217592592593 32.0442708333333  12.8888888888889 30.6666666666667  L 13.3420138888889 21.203125  L 27.7916666666667 26.6236979166667  C 28.1608796296296 26.7634548611111  28.5636574074074 26.8333333333333  29 26.8333333333333  C 29.4363425925926 26.8333333333333  29.8391203703704 26.7634548611111  30.2083333333333 26.6236979166667  Z M 57.4461805555556 10.5716145833333  C 57.8153935185185 10.7313368055556  58 11.0407986111111  58 11.5  C 58 11.9592013888889  57.8153935185185 12.2686631944444  57.4461805555556 12.4283854166667  L 29.2517361111111 22.9700520833333  C 29.1846064814815 22.9900173611111  29.1006944444444 23  29 23  C 28.8993055555556 23  28.8153935185185 22.9900173611111  28.7482638888889 22.9700520833333  L 12.3350694444444 16.80078125  C 11.6134259259259 17.4796006944444  11.017650462963 18.5926649305556  10.5477430555556 20.1399739583333  C 10.0778356481481 21.6872829861111  9.79253472222222 23.4691840277778  9.69184027777778 25.4856770833333  C 10.7491319444444 26.2044270833333  11.2777777777778 27.2925347222222  11.2777777777778 28.75  C 11.2777777777778 30.1276041666667  10.791087962963 31.1957465277778  9.81770833333333 31.9544270833333  L 11.2777777777778 44.921875  C 11.3113425925926 45.2013888888889  11.244212962963 45.4509548611111  11.0763888888889 45.6705729166667  C 10.9253472222222 45.8901909722222  10.7239583333333 46  10.4722222222222 46  L 5.63888888888889 46  C 5.38715277777778 46  5.18576388888889 45.8901909722222  5.03472222222222 45.6705729166667  C 4.86689814814815 45.4509548611111  4.79976851851852 45.2013888888889  4.83333333333333 44.921875  L 6.29340277777778 31.9544270833333  C 5.32002314814815 31.1957465277778  4.83333333333333 30.1276041666667  4.83333333333333 28.75  C 4.83333333333333 27.2925347222222  5.37876157407407 26.1844618055556  6.46961805555556 25.42578125  C 6.65422453703704 21.29296875  7.4765625 17.9986979166667  8.93663194444444 15.54296875  L 0.553819444444445 12.4283854166667  C 0.184606481481481 12.2686631944444  0 11.9592013888889  0 11.5  C 0 11.0407986111111  0.184606481481481 10.7313368055556  0.553819444444445 10.5716145833333  L 28.7482638888889 0.029947916666665  C 28.8153935185185 0.00998263888888662  28.8993055555556 0  29 0  C 29.1006944444444 0  29.1846064814815 0.00998263888888662  29.2517361111111 0.029947916666665  L 57.4461805555556 10.5716145833333  Z " fill-rule="nonzero" fill="#ffffff" stroke="none" transform="matrix(1 0 0 1 1095 558 )" />
  </g>
</svg>