<?xml version="1.0" encoding="utf-8"?>
<svg version="1.1" xmlns:xlink="http://www.w3.org/1999/xlink" width="22px" height="22px" xmlns="http://www.w3.org/2000/svg">
  <g transform="matrix(1 0 0 1 -1175 -20 )">
    <path d="M 7.95913461538462 18.59375  C 8.29407051282051 18.9895833333333  8.46153846153846 19.4583333333333  8.46153846153846 20  C 8.46153846153846 20.5416666666667  8.29407051282051 21.0104166666667  7.95913461538462 21.40625  C 7.62419871794872 21.8020833333333  7.2275641025641 22  6.76923076923077 22  C 6.31089743589744 22  5.91426282051282 21.8020833333333  5.57932692307692 21.40625  C 5.24439102564103 21.0104166666667  5.07692307692308 20.5416666666667  5.07692307692308 20  C 5.07692307692308 19.4583333333333  5.24439102564103 18.9895833333333  5.57932692307692 18.59375  C 5.91426282051282 18.1979166666667  6.31089743589744 18  6.76923076923077 18  C 7.2275641025641 18  7.62419871794872 18.1979166666667  7.95913461538462 18.59375  Z M 19.8052884615385 18.59375  C 20.1402243589744 18.9895833333333  20.3076923076923 19.4583333333333  20.3076923076923 20  C 20.3076923076923 20.5416666666667  20.1402243589744 21.0104166666667  19.8052884615385 21.40625  C 19.4703525641026 21.8020833333333  19.0737179487179 22  18.6153846153846 22  C 18.1570512820513 22  17.7604166666667 21.8020833333333  17.4254807692308 21.40625  C 17.0905448717949 21.0104166666667  16.9230769230769 20.5416666666667  16.9230769230769 20  C 16.9230769230769 19.4583333333333  17.0905448717949 18.9895833333333  17.4254807692308 18.59375  C 17.7604166666667 18.1979166666667  18.1570512820513 18  18.6153846153846 18  C 19.0737179487179 18  19.4703525641026 18.1979166666667  19.8052884615385 18.59375  Z M 21.7487980769231 2.296875  C 21.916266025641 2.49479166666666  22 2.72916666666666  22 3  L 22 11  C 22 11.25  21.9272836538462 11.4713541666667  21.7818509615385 11.6640625  C 21.6364182692308 11.8567708333333  21.4579326923077 11.96875  21.2463942307692 12  L 7.44350961538462 13.90625  C 7.55809294871795 14.53125  7.61538461538462 14.8958333333333  7.61538461538462 15  C 7.61538461538462 15.1666666666667  7.50961538461539 15.5  7.29807692307692 16  L 19.4615384615385 16  C 19.6907051282051 16  19.8890224358974 16.0989583333333  20.0564903846154 16.296875  C 20.2239583333333 16.4947916666667  20.3076923076923 16.7291666666667  20.3076923076923 17  C 20.3076923076923 17.2708333333333  20.2239583333333 17.5052083333333  20.0564903846154 17.703125  C 19.8890224358974 17.9010416666667  19.6907051282051 18  19.4615384615385 18  L 5.92307692307692 18  C 5.69391025641026 18  5.49559294871795 17.9010416666667  5.328125 17.703125  C 5.16065705128205 17.5052083333333  5.07692307692308 17.2708333333333  5.07692307692308 17  C 5.07692307692308 16.8854166666667  5.11217948717949 16.7213541666667  5.18269230769231 16.5078125  C 5.25320512820513 16.2942708333333  5.32371794871795 16.1067708333333  5.39423076923077 15.9453125  C 5.46474358974359 15.7838541666667  5.55949519230769 15.5755208333333  5.67848557692308 15.3203125  C 5.79747596153846 15.0651041666667  5.86578525641026 14.9114583333333  5.88341346153846 14.859375  L 3.54326923076923 2  L 0.846153846153846 2  C 0.61698717948718 2  0.418669871794872 1.90104166666666  0.251201923076923 1.703125  C 0.0837339743589744 1.50520833333333  0 1.27083333333333  0 0.999999999999999  C 0 0.729166666666665  0.0837339743589744 0.494791666666664  0.251201923076923 0.296875000000001  C 0.418669871794872 0.0989583333333313  0.61698717948718 0  0.846153846153846 0  L 4.23076923076923 0  C 4.37179487179487 0  4.49739583333333 0.0338541666666652  4.60757211538462 0.1015625  C 4.7177483974359 0.169270833333333  4.8036858974359 0.25  4.86538461538462 0.34375  C 4.92708333333333 0.4375  4.984375 0.565104166666663  5.03725961538462 0.726562500000001  C 5.09014423076923 0.888020833333332  5.12540064102564 1.0234375  5.14302884615385 1.1328125  C 5.16065705128205 1.2421875  5.18489583333333 1.39583333333333  5.21574519230769 1.59375  C 5.24659455128205 1.79166666666666  5.26642628205128 1.92708333333333  5.27524038461539 2  L 21.1538461538462 2  C 21.3830128205128 2  21.5813301282051 2.09895833333333  21.7487980769231 2.296875  Z " fill-rule="nonzero" fill="#7e7e7e" stroke="none" transform="matrix(1 0 0 1 1175 20 )" />
  </g>
</svg>