<?xml version="1.0" encoding="utf-8"?>
<svg version="1.1" xmlns:xlink="http://www.w3.org/1999/xlink" width="25px" height="16px" xmlns="http://www.w3.org/2000/svg">
  <g transform="matrix(1 0 0 1 -16 -26 )">
    <path d="M 13.0208333333333 9.26041666666667  L 19.2491319444444 7.375  L 19.4444444444444 10.6666666666667  C 19.4733796296296 11.1458333333333  19.1767939814815 11.5902777777778  18.5546875 12  C 17.9325810185185 12.4097222222222  17.0826099537037 12.734375  16.0047743055556 12.9739583333333  C 14.9269386574074 13.2135416666667  13.7586805555556 13.3333333333333  12.5 13.3333333333333  C 11.2413194444444 13.3333333333333  10.0730613425926 13.2135416666667  8.99522569444444 12.9739583333333  C 7.9173900462963 12.734375  7.06741898148148 12.4097222222222  6.4453125 12  C 5.82320601851852 11.5902777777778  5.52662037037037 11.1458333333333  5.55555555555556 10.6666666666667  L 5.75086805555556 7.375  L 11.9791666666667 9.26041666666667  C 12.1383101851852 9.30902777777778  12.3119212962963 9.33333333333333  12.5 9.33333333333333  C 12.6880787037037 9.33333333333333  12.8616898148148 9.30902777777778  13.0208333333333 9.26041666666667  Z M 24.7612847222222 3.67708333333333  C 24.9204282407407 3.73263888888889  25 3.84027777777778  25 4  C 25 4.15972222222222  24.9204282407407 4.26736111111111  24.7612847222222 4.32291666666667  L 12.6085069444444 7.98958333333333  C 12.5795717592593 7.99652777777778  12.5434027777778 8  12.5 8  C 12.4565972222222 8  12.4204282407407 7.99652777777778  12.3914930555556 7.98958333333333  L 5.31684027777778 5.84375  C 5.00578703703704 6.07986111111111  4.74898726851852 6.46701388888889  4.54644097222222 7.00520833333333  C 4.34389467592593 7.54340277777778  4.22092013888889 8.16319444444444  4.17751736111111 8.86458333333333  C 4.63324652777778 9.11458333333333  4.86111111111111 9.49305555555555  4.86111111111111 10  C 4.86111111111111 10.4791666666667  4.65133101851852 10.8506944444444  4.23177083333333 11.1145833333333  L 4.86111111111111 15.625  C 4.8755787037037 15.7222222222222  4.84664351851852 15.8090277777778  4.77430555555556 15.8854166666667  C 4.70920138888889 15.9618055555556  4.62239583333333 16  4.51388888888889 16  L 2.43055555555556 16  C 2.32204861111111 16  2.23524305555556 15.9618055555556  2.17013888888889 15.8854166666667  C 2.09780092592593 15.8090277777778  2.06886574074074 15.7222222222222  2.08333333333333 15.625  L 2.71267361111111 11.1145833333333  C 2.29311342592593 10.8506944444444  2.08333333333333 10.4791666666667  2.08333333333333 10  C 2.08333333333333 9.49305555555555  2.31843171296296 9.10763888888889  2.78862847222222 8.84375  C 2.86820023148148 7.40625  3.22265625 6.26041666666667  3.85199652777778 5.40625  L 0.238715277777778 4.32291666666667  C 0.0795717592592593 4.26736111111111  0 4.15972222222222  0 4  C 0 3.84027777777778  0.0795717592592593 3.73263888888889  0.238715277777778 3.67708333333333  L 12.3914930555556 0.0104166666666661  C 12.4204282407407 0.00347222222222143  12.4565972222222 0  12.5 0  C 12.5434027777778 0  12.5795717592593 0.00347222222222143  12.6085069444444 0.0104166666666661  L 24.7612847222222 3.67708333333333  Z " fill-rule="nonzero" fill="#a2a2a2" stroke="none" transform="matrix(1 0 0 1 16 26 )" />
  </g>
</svg>