<?xml version="1.0" encoding="utf-8"?>
<svg version="1.1" xmlns:xlink="http://www.w3.org/1999/xlink" width="20px" height="19px" xmlns="http://www.w3.org/2000/svg">
  <g transform="matrix(1 0 0 1 -16 -209 )">
    <path d="M 0 4.07142857142857  L 10 0  L 20 4.07142857142857  L 20 5.42857142857143  L 18.6666666666667 5.42857142857143  C 18.6666666666667 5.61235119047619  18.5954861111111 5.77139136904762  18.453125 5.90569196428572  C 18.3107638888889 6.03999255952381  18.1423611111111 6.10714285714286  17.9479166666667 6.10714285714286  L 2.05208333333333 6.10714285714286  C 1.85763888888889 6.10714285714286  1.68923611111111 6.03999255952381  1.546875 5.90569196428572  C 1.40451388888889 5.77139136904762  1.33333333333333 5.61235119047619  1.33333333333333 5.42857142857143  L 0 5.42857142857143  L 0 4.07142857142857  Z M 2.66666666666667 14.9285714285714  L 2.66666666666667 6.78571428571428  L 5.33333333333333 6.78571428571428  L 5.33333333333333 14.9285714285714  L 6.66666666666667 14.9285714285714  L 6.66666666666667 6.78571428571428  L 9.33333333333333 6.78571428571428  L 9.33333333333333 14.9285714285714  L 10.6666666666667 14.9285714285714  L 10.6666666666667 6.78571428571428  L 13.3333333333333 6.78571428571428  L 13.3333333333333 14.9285714285714  L 14.6666666666667 14.9285714285714  L 14.6666666666667 6.78571428571428  L 17.3333333333333 6.78571428571428  L 17.3333333333333 14.9285714285714  L 17.9479166666667 14.9285714285714  C 18.1423611111111 14.9285714285714  18.3107638888889 14.9957217261905  18.453125 15.1300223214286  C 18.5954861111111 15.2643229166667  18.6666666666667 15.4233630952381  18.6666666666667 15.6071428571429  L 18.6666666666667 16  L 1.33333333333333 16  L 1.33333333333333 15.6071428571429  C 1.33333333333333 15.4233630952381  1.40451388888889 15.2643229166667  1.546875 15.1300223214286  C 1.68923611111111 14.9957217261905  1.85763888888889 14.9285714285714  2.05208333333333 14.9285714285714  L 2.66666666666667 14.9285714285714  Z M 0.71875 17  L 19.28125 17  C 19.4756944444444 16.9642857142857  19.6440972222222 17.0314360119048  19.7864583333333 17.1657366071429  C 19.9288194444444 17.300037202381  20 17.4590773809524  20 17.6428571428571  L 20 19  L 0 19  L 0 17.6428571428571  C 0 17.4590773809524  0.0711805555555556 17.300037202381  0.213541666666667 17.1657366071429  C 0.355902777777778 17.0314360119048  0.524305555555556 16.9642857142857  0.71875 17  Z " fill-rule="nonzero" fill="#9c9c9c" stroke="none" transform="matrix(1 0 0 1 16 209 )" />
  </g>
</svg>