<?xml version="1.0" encoding="utf-8"?>
<svg version="1.1" xmlns:xlink="http://www.w3.org/1999/xlink" width="20px" height="16px" xmlns="http://www.w3.org/2000/svg">
  <g transform="matrix(1 0 0 1 -16 -118 )">
    <path d="M 6.22685185185185 14.1136363636364  C 6.52006172839506 13.8257575757576  6.66666666666667 13.4848484848485  6.66666666666667 13.0909090909091  C 6.66666666666667 12.6969696969697  6.52006172839506 12.3560606060606  6.22685185185185 12.0681818181818  C 5.93364197530864 11.780303030303  5.58641975308642 11.6363636363636  5.18518518518519 11.6363636363636  C 4.78395061728395 11.6363636363636  4.43672839506173 11.780303030303  4.14351851851852 12.0681818181818  C 3.85030864197531 12.3560606060606  3.7037037037037 12.6969696969697  3.7037037037037 13.0909090909091  C 3.7037037037037 13.4848484848485  3.85030864197531 13.8257575757576  4.14351851851852 14.1136363636364  C 4.43672839506173 14.4015151515152  4.78395061728395 14.5454545454545  5.18518518518519 14.5454545454545  C 5.58641975308642 14.5454545454545  5.93364197530864 14.4015151515152  6.22685185185185 14.1136363636364  Z M 2.22222222222222 6.93181818181818  L 2.22222222222222 7.27272727272727  L 6.66666666666667 7.27272727272727  L 6.66666666666667 4.36363636363636  L 4.83796296296296 4.36363636363636  C 4.73765432098766 4.36363636363636  4.65277777777778 4.39772727272727  4.58333333333333 4.46590909090909  L 2.32638888888889 6.68181818181818  C 2.25694444444444 6.75  2.22222222222222 6.83333333333333  2.22222222222222 6.93181818181818  Z M 16.5972222222222 14.1136363636364  C 16.8904320987654 13.8257575757576  17.037037037037 13.4848484848485  17.037037037037 13.0909090909091  C 17.037037037037 12.6969696969697  16.8904320987654 12.3560606060606  16.5972222222222 12.0681818181818  C 16.304012345679 11.780303030303  15.9567901234568 11.6363636363636  15.5555555555556 11.6363636363636  C 15.1543209876543 11.6363636363636  14.8070987654321 11.780303030303  14.5138888888889 12.0681818181818  C 14.2206790123457 12.3560606060606  14.0740740740741 12.6969696969697  14.0740740740741 13.0909090909091  C 14.0740740740741 13.4848484848485  14.2206790123457 13.8257575757576  14.5138888888889 14.1136363636364  C 14.8070987654321 14.4015151515152  15.1543209876543 14.5454545454545  15.5555555555556 14.5454545454545  C 15.9567901234568 14.5454545454545  16.304012345679 14.4015151515152  16.5972222222222 14.1136363636364  Z M 19.7800925925926 0.215909090909092  C 19.9266975308642 0.359848484848483  20 0.530303030303029  20 0.727272727272727  L 20 12.3636363636364  C 20 12.4772727272727  19.9845679012346 12.5776515151515  19.9537037037037 12.6647727272727  C 19.9228395061728 12.7518939393939  19.8707561728395 12.8219696969697  19.7974537037037 12.875  C 19.7241512345679 12.9280303030303  19.6604938271605 12.9715909090909  19.6064814814815 13.0056818181818  C 19.5524691358025 13.0397727272727  19.4618055555556 13.0625  19.3344907407407 13.0738636363636  C 19.2071759259259 13.0852272727273  19.1203703703704 13.092803030303  19.0740740740741 13.0965909090909  C 19.0277777777778 13.1003787878788  18.9293981481481 13.1003787878788  18.7789351851852 13.0965909090909  C 18.6284722222222 13.092803030303  18.5416666666667 13.0909090909091  18.5185185185185 13.0909090909091  C 18.5185185185185 13.8939393939394  18.2291666666667 14.5795454545455  17.650462962963 15.1477272727273  C 17.0717592592593 15.7159090909091  16.3734567901235 16  15.5555555555556 16  C 14.7376543209877 16  14.0393518518519 15.7159090909091  13.4606481481481 15.1477272727273  C 12.8819444444444 14.5795454545455  12.5925925925926 13.8939393939394  12.5925925925926 13.0909090909091  L 8.14814814814815 13.0909090909091  C 8.14814814814815 13.8939393939394  7.8587962962963 14.5795454545455  7.28009259259259 15.1477272727273  C 6.70138888888889 15.7159090909091  6.00308641975309 16  5.18518518518519 16  C 4.36728395061728 16  3.66898148148148 15.7159090909091  3.09027777777778 15.1477272727273  C 2.51157407407407 14.5795454545455  2.22222222222222 13.8939393939394  2.22222222222222 13.0909090909091  L 1.48148148148148 13.0909090909091  C 1.45833333333333 13.0909090909091  1.37152777777778 13.092803030303  1.22106481481481 13.0965909090909  C 1.07060185185185 13.1003787878788  0.972222222222222 13.1003787878788  0.925925925925926 13.0965909090909  C 0.87962962962963 13.092803030303  0.792824074074074 13.0852272727273  0.665509259259259 13.0738636363636  C 0.538194444444445 13.0625  0.447530864197531 13.0397727272727  0.393518518518519 13.0056818181818  C 0.339506172839506 12.9715909090909  0.275848765432099 12.9280303030303  0.202546296296296 12.875  C 0.129243827160494 12.8219696969697  0.0771604938271605 12.7518939393939  0.0462962962962963 12.6647727272727  C 0.0154320987654322 12.5776515151515  0 12.4772727272727  0 12.3636363636364  C 0 12.1666666666667  0.0733024691358026 11.9962121212121  0.219907407407407 11.8522727272727  C 0.366512345679013 11.7083333333333  0.540123456790124 11.6363636363636  0.740740740740741 11.6363636363636  L 0.740740740740741 8  C 0.740740740740741 7.93939393939394  0.738811728395062 7.80681818181818  0.734953703703704 7.60227272727273  C 0.731095679012346 7.39772727272727  0.731095679012346 7.25378787878788  0.734953703703704 7.17045454545455  C 0.738811728395062 7.08712121212121  0.748456790123457 6.95643939393939  0.763888888888889 6.77840909090909  C 0.779320987654321 6.60037878787879  0.804398148148148 6.46022727272727  0.83912037037037 6.35795454545455  C 0.873842592592593 6.25568181818182  0.927854938271605 6.14015151515151  1.00115740740741 6.01136363636364  C 1.07445987654321 5.88257575757576  1.16126543209877 5.76893939393939  1.26157407407407 5.67045454545455  L 3.55324074074074 3.42045454545455  C 3.69984567901235 3.27651515151515  3.89467592592593 3.15530303030303  4.13773148148148 3.05681818181818  C 4.38078703703704 2.95833333333333  4.60648148148148 2.90909090909091  4.81481481481481 2.90909090909091  L 6.66666666666667 2.90909090909091  L 6.66666666666667 0.727272727272727  C 6.66666666666667 0.530303030303029  6.73996913580247 0.359848484848483  6.88657407407407 0.215909090909092  C 7.03317901234568 0.0719696969696955  7.20679012345679 0  7.40740740740741 0  L 19.2592592592593 0  C 19.4598765432099 0  19.633487654321 0.0719696969696955  19.7800925925926 0.215909090909092  Z " fill-rule="nonzero" fill="#9e9e9e" stroke="none" transform="matrix(1 0 0 1 16 118 )" />
  </g>
</svg>