<?xml version="1.0" encoding="utf-8"?>
<svg version="1.1" xmlns:xlink="http://www.w3.org/1999/xlink" width="65px" height="61px" xmlns="http://www.w3.org/2000/svg">
  <g transform="matrix(1 0 0 1 -221 -669 )">
    <path d="M 17.3333333333333 21.7857142857143  C 17.3333333333333 24.9401041666667  18.2473958333333 27.8448660714286  20.0755208333333 30.5  C 16.4192708333333 30.6134672619048  13.4288194444444 32.0658482142857  11.1041666666667 34.8571428571429  L 6.56770833333333 34.8571428571429  C 4.71701388888889 34.8571428571429  3.15972222222222 34.3976004464286  1.89583333333333 33.478515625  C 0.631944444444444 32.5594308035714  0 31.21484375  0 29.4447544642857  C 0 21.4339657738095  1.39930555555556 17.4285714285714  4.19791666666667 17.4285714285714  C 4.33333333333333 17.4285714285714  4.82421875 17.6668526785714  5.67057291666667 18.1434151785714  C 6.51692708333333 18.6199776785714  7.6171875 19.1022135416667  8.97135416666667 19.5901227678571  C 10.3255208333333 20.0780319940476  11.6684027777778 20.3219866071429  13 20.3219866071429  C 14.5121527777778 20.3219866071429  16.0130208333333 20.0610119047619  17.5026041666667 19.5390625  C 17.3897569444444 20.3787202380952  17.3333333333333 21.1276041666667  17.3333333333333 21.7857142857143  Z M 56.21484375 48.6604352678571  C 56.2938368055556 49.8064546130952  56.3333333333333 50.9808407738095  56.3333333333333 52.18359375  C 56.3333333333333 54.9068080357143  55.5095486111111 57.0570126488095  53.8619791666667 58.6342075892857  C 52.2144097222222 60.2114025297619  50.0251736111111 61  47.2942708333333 61  L 17.7057291666667 61  C 14.9748263888889 61  12.7855902777778 60.2114025297619  11.1380208333333 58.6342075892857  C 9.49045138888889 57.0570126488095  8.66666666666667 54.9068080357143  8.66666666666667 52.18359375  C 8.66666666666667 50.9808407738095  8.70616319444444 49.8064546130952  8.78515625 48.6604352678571  C 8.86414930555556 47.514415922619  9.02213541666667 46.2776227678571  9.25911458333333 44.9500558035714  C 9.49609375 43.6224888392857  9.79513888888889 42.391369047619  10.15625 41.2566964285714  C 10.5173611111111 40.1220238095238  11.0026041666667 39.0157180059524  11.6119791666667 37.9377790178571  C 12.2213541666667 36.8598400297619  12.9210069444444 35.9407552083333  13.7109375 35.1805245535714  C 14.5008680555556 34.4202938988095  15.4657118055556 33.813244047619  16.60546875 33.359375  C 17.7452256944444 32.9055059523809  19.0034722222222 32.6785714285714  20.3802083333333 32.6785714285714  C 20.6059027777778 32.6785714285714  21.0911458333333 32.9225260416667  21.8359375 33.4104352678571  C 22.5807291666667 33.8983444940476  23.4045138888889 34.4429873511905  24.3072916666667 35.0443638392857  C 25.2100694444445 35.6457403273809  26.4175347222222 36.1903831845238  27.9296875 36.6782924107143  C 29.4418402777778 37.1662016369048  30.9652777777778 37.41015625  32.5 37.41015625  C 34.0347222222222 37.41015625  35.5581597222222 37.1662016369048  37.0703125 36.6782924107143  C 38.5824652777778 36.1903831845238  39.7899305555556 35.6457403273809  40.6927083333333 35.0443638392857  C 41.5954861111111 34.4429873511905  42.4192708333333 33.8983444940476  43.1640625 33.4104352678571  C 43.9088541666667 32.9225260416667  44.3940972222222 32.6785714285714  44.6197916666667 32.6785714285714  C 45.9965277777778 32.6785714285714  47.2547743055556 32.9055059523809  48.39453125 33.359375  C 49.5342881944445 33.813244047619  50.4991319444444 34.4202938988095  51.2890625 35.1805245535714  C 52.0789930555556 35.9407552083333  52.7786458333333 36.8598400297619  53.3880208333333 37.9377790178571  C 53.9973958333333 39.0157180059524  54.4826388888889 40.1220238095238  54.84375 41.2566964285714  C 55.2048611111111 42.391369047619  55.50390625 43.6224888392857  55.7408854166667 44.9500558035714  C 55.9778645833333 46.2776227678571  56.1358506944445 47.514415922619  56.21484375 48.6604352678571  Z M 19.1276041666667 2.55301339285715  C 20.8203125 4.25502232142857  21.6666666666667 6.30877976190476  21.6666666666667 8.71428571428572  C 21.6666666666667 11.1197916666667  20.8203125 13.1735491071429  19.1276041666667 14.8755580357143  C 17.4348958333333 16.5775669642857  15.3923611111111 17.4285714285714  13 17.4285714285714  C 10.6076388888889 17.4285714285714  8.56510416666667 16.5775669642857  6.87239583333333 14.8755580357143  C 5.1796875 13.1735491071429  4.33333333333333 11.1197916666667  4.33333333333333 8.71428571428572  C 4.33333333333333 6.30877976190476  5.1796875 4.25502232142857  6.87239583333333 2.55301339285715  C 8.56510416666667 0.851004464285717  10.6076388888889 0  13 0  C 15.3923611111111 0  17.4348958333333 0.851004464285717  19.1276041666667 2.55301339285715  Z M 41.69140625 12.5438058035714  C 44.23046875 15.0968191964286  45.5 18.1774553571429  45.5 21.7857142857143  C 45.5 25.3939732142857  44.23046875 28.474609375  41.69140625 31.0276227678571  C 39.15234375 33.5806361607143  36.0885416666667 34.8571428571429  32.5 34.8571428571429  C 28.9114583333333 34.8571428571429  25.84765625 33.5806361607143  23.30859375 31.0276227678571  C 20.76953125 28.474609375  19.5 25.3939732142857  19.5 21.7857142857143  C 19.5 18.1774553571429  20.76953125 15.0968191964286  23.30859375 12.5438058035714  C 25.84765625 9.99079241071428  28.9114583333333 8.71428571428572  32.5 8.71428571428572  C 36.0885416666667 8.71428571428572  39.15234375 9.99079241071428  41.69140625 12.5438058035714  Z M 60.8020833333333 17.4285714285714  C 63.6006944444445 17.4285714285714  65 21.4339657738095  65 29.4447544642857  C 65 31.21484375  64.3680555555556 32.5594308035714  63.1041666666667 33.478515625  C 61.8402777777778 34.3976004464286  60.2829861111111 34.8571428571429  58.4322916666667 34.8571428571429  L 53.8958333333333 34.8571428571429  C 51.5711805555556 32.0658482142857  48.5807291666667 30.6134672619048  44.9244791666667 30.5  C 46.7526041666667 27.8448660714286  47.6666666666667 24.9401041666667  47.6666666666667 21.7857142857143  C 47.6666666666667 21.1276041666667  47.6102430555556 20.3787202380952  47.4973958333333 19.5390625  C 48.9869791666667 20.0610119047619  50.4878472222222 20.3219866071429  52 20.3219866071429  C 53.3315972222222 20.3219866071429  54.6744791666667 20.0780319940476  56.0286458333333 19.5901227678571  C 57.3828125 19.1022135416667  58.4830729166667 18.6199776785714  59.3294270833333 18.1434151785714  C 60.17578125 17.6668526785714  60.6666666666667 17.4285714285714  60.8020833333333 17.4285714285714  Z M 58.1276041666667 2.55301339285715  C 59.8203125 4.25502232142857  60.6666666666667 6.30877976190476  60.6666666666667 8.71428571428572  C 60.6666666666667 11.1197916666667  59.8203125 13.1735491071429  58.1276041666667 14.8755580357143  C 56.4348958333333 16.5775669642857  54.3923611111111 17.4285714285714  52 17.4285714285714  C 49.6076388888889 17.4285714285714  47.5651041666667 16.5775669642857  45.8723958333333 14.8755580357143  C 44.1796875 13.1735491071429  43.3333333333333 11.1197916666667  43.3333333333333 8.71428571428572  C 43.3333333333333 6.30877976190476  44.1796875 4.25502232142857  45.8723958333333 2.55301339285715  C 47.5651041666667 0.851004464285717  49.6076388888889 0  52 0  C 54.3923611111111 0  56.4348958333333 0.851004464285717  58.1276041666667 2.55301339285715  Z " fill-rule="nonzero" fill="#959595" stroke="none" transform="matrix(1 0 0 1 221 669 )" />
  </g>
</svg>