<?xml version="1.0" encoding="utf-8"?>
<svg version="1.1" xmlns:xlink="http://www.w3.org/1999/xlink" width="65px" height="60px" xmlns="http://www.w3.org/2000/svg">
  <g transform="matrix(1 0 0 1 -735 -669 )">
    <path d="M 27.7942708333333 36.1499148211244  C 29.4869791666667 34.4463373083475  30.3333333333333 32.3906871095968  30.3333333333333 29.9829642248722  C 30.3333333333333 27.5752413401476  29.4869791666667 25.5195911413969  27.7942708333333 23.8160136286201  C 26.1015625 22.1124361158433  24.0590277777778 21.2606473594549  21.6666666666667 21.2606473594549  C 19.2743055555556 21.2606473594549  17.2317708333333 22.1124361158433  15.5390625 23.8160136286201  C 13.8463541666667 25.5195911413969  13 27.5752413401476  13 29.9829642248722  C 13 32.3906871095968  13.8463541666667 34.4463373083475  15.5390625 36.1499148211244  C 17.2317708333333 37.8534923339012  19.2743055555556 38.7052810902896  21.6666666666667 38.7052810902896  C 24.0590277777778 38.7052810902896  26.1015625 37.8534923339012  27.7942708333333 36.1499148211244  Z M 55.0638020833333 50.5110732538331  C 55.91015625 49.6592844974446  56.3333333333333 48.6314593980693  56.3333333333333 47.427597955707  C 56.3333333333333 46.2464508801817  55.9045138888889 45.2243043725156  55.046875 44.3611584327087  C 54.1892361111111 43.4980124929018  53.1736111111111 43.0664395229983  52 43.0664395229983  C 50.8263888888889 43.0664395229983  49.8107638888889 43.4980124929018  48.953125 44.3611584327087  C 48.0954861111111 45.2243043725156  47.6666666666667 46.2464508801817  47.6666666666667 47.427597955707  C 47.6666666666667 48.6314593980693  48.08984375 49.6592844974446  48.9361979166667 50.5110732538331  C 49.7825520833333 51.3628620102215  50.8038194444445 51.7887563884157  52 51.7887563884157  C 53.1961805555556 51.7887563884157  54.2174479166667 51.3628620102215  55.0638020833333 50.5110732538331  Z M 55.0638020833333 15.6218057921635  C 55.91015625 14.7700170357751  56.3333333333333 13.7421919363998  56.3333333333333 12.5383304940375  C 56.3333333333333 11.3571834185122  55.9045138888889 10.3350369108461  55.046875 9.47189097103918  C 54.1892361111111 8.60874503123225  53.1736111111111 8.17717206132879  52 8.17717206132879  C 50.8263888888889 8.17717206132879  49.8107638888889 8.60874503123225  48.953125 9.47189097103918  C 48.0954861111111 10.3350369108461  47.6666666666667 11.3571834185122  47.6666666666667 12.5383304940375  C 47.6666666666667 13.7421919363998  48.08984375 14.7700170357751  48.9361979166667 15.6218057921635  C 49.7825520833333 16.473594548552  50.8038194444445 16.8994889267462  52 16.8994889267462  C 53.1961805555556 16.8994889267462  54.2174479166667 16.473594548552  55.0638020833333 15.6218057921635  Z M 43.0963541666667 26.2180579216354  C 43.2543402777778 26.4111300397501  43.3333333333333 26.6325951164111  43.3333333333333 26.8824531516184  L 43.3333333333333 33.1856899488927  C 43.3333333333333 33.4128336172629  43.2543402777778 33.6342986939239  43.0963541666667 33.8500851788756  C 42.9383680555556 34.0658716638274  42.7578125 34.1851220897217  42.5546875 34.2078364565588  L 37.3072916666667 35.0255536626916  C 37.0590277777778 35.8205565019875  36.6979166666667 36.6837024417944  36.2239583333333 37.6149914821124  C 36.9913194444445 38.7052810902896  38.0069444444445 40.0113571834185  39.2708333333333 41.5332197614991  C 39.4288194444444 41.7830777967064  39.5078125 42.0102214650767  39.5078125 42.2146507666099  C 39.5078125 42.4872231686542  39.4288194444444 42.7030096536059  39.2708333333333 42.8620102214651  C 38.7517361111111 43.5434412265758  37.8207465277778 44.5599091425326  36.4778645833333 45.9114139693356  C 35.1349826388889 47.2629187961386  34.2491319444444 47.93867120954  33.8203125 47.93867120954  C 33.5720486111111 47.93867120954  33.3350694444444 47.8591709256104  33.109375 47.7001703577513  L 29.2161458333333 44.633730834753  C 28.3810763888889 45.0653038046564  27.5121527777778 45.4173764906303  26.609375 45.6899488926746  C 26.3611111111111 48.1431005110733  26.1015625 49.9034639409427  25.8307291666667 50.9710391822828  C 25.6727430555556 51.5161839863714  25.3342013888889 51.7887563884157  24.8151041666667 51.7887563884157  L 18.5182291666667 51.7887563884157  C 18.2699652777778 51.7887563884157  18.0442708333333 51.7035775127768  17.8411458333333 51.5332197614992  C 17.6380208333333 51.3628620102215  17.5251736111111 51.1641113003975  17.5026041666667 50.9369676320273  L 16.7239583333333 45.7240204429302  C 15.9565972222222 45.4968767745599  15.1102430555556 45.144804088586  14.1848958333333 44.6678023850085  L 10.1901041666667 47.7001703577513  C 10.0321180555556 47.8591709256104  9.80642361111111 47.93867120954  9.51302083333333 47.93867120954  C 9.26475694444445 47.93867120954  9.02777777777778 47.8478137421919  8.80208333333333 47.6660988074957  C 5.55208333333333 44.6450880181715  3.92708333333333 42.8279386712095  3.92708333333333 42.2146507666099  C 3.92708333333333 42.0102214650767  4.00607638888889 41.7944349801249  4.1640625 41.5672913117547  C 4.38975694444444 41.2492901760363  4.85243055555556 40.6473594548552  5.55208333333333 39.7614991482112  C 6.25173611111111 38.8756388415673  6.78211805555556 38.182850653038  7.14322916666667 37.6831345826235  C 6.62413194444445 36.6837024417944  6.22916666666667 35.7524134014764  5.95833333333333 34.8892674616695  L 0.8125 34.0715502555366  C 0.586805555555556 34.0488358886996  0.394965277777778 33.9409426462237  0.236979166666667 33.747870528109  C 0.0789930555555555 33.5547984099943  0 33.3333333333333  0 33.0834752981261  L 0 26.7802385008518  C 0 26.5530948324815  0.0789930555555555 26.3316297558206  0.236979166666667 26.1158432708688  C 0.394965277777778 25.9000567859171  0.575520833333333 25.7808063600227  0.778645833333333 25.7580919931857  L 6.02604166666667 24.9403747870528  C 6.27430555555556 24.145371947757  6.63541666666667 23.28222600795  7.109375 22.350936967632  C 6.34201388888889 21.2606473594549  5.32638888888889 19.9545712663259  4.0625 18.4327086882453  C 3.90451388888889 18.182850653038  3.82552083333333 17.9557069846678  3.82552083333333 17.7512776831346  C 3.82552083333333 17.4787052810903  3.90451388888889 17.25156161272  4.0625 17.0698466780239  C 4.55902777777778 16.3884156729131  5.484375 15.3776263486655  6.83854166666667 14.0374787052811  C 8.19270833333333 12.6973310618966  9.08420138888889 12.0272572402044  9.51302083333333 12.0272572402044  C 9.76128472222222 12.0272572402044  9.99826388888889 12.106757524134  10.2239583333333 12.2657580919932  L 14.1171875 15.3321976149915  C 14.8845486111111 14.923339011925  15.7534722222222 14.5599091425327  16.7239583333333 14.2419080068143  C 16.9722222222222 11.7887563884157  17.2317708333333 10.0397501419648  17.5026041666667 8.99488926746167  C 17.6605902777778 8.44974446337308  17.9991319444444 8.17717206132879  18.5182291666667 8.17717206132879  L 24.8151041666667 8.17717206132879  C 25.0633680555556 8.17717206132879  25.2890625 8.26235093696764  25.4921875 8.43270868824532  C 25.6953125 8.60306643952299  25.8081597222222 8.80181714934696  25.8307291666667 9.02896081771721  L 26.609375 14.2419080068143  C 27.3767361111111 14.4690516751846  28.2230902777778 14.8211243611584  29.1484375 15.2981260647359  L 33.1432291666667 12.2657580919932  C 33.3237847222222 12.106757524134  33.5494791666667 12.0272572402044  33.8203125 12.0272572402044  C 34.0685763888889 12.0272572402044  34.3055555555556 12.1181147075525  34.53125 12.2998296422487  C 37.78125 15.320840431573  39.40625 17.1379897785349  39.40625 17.7512776831346  C 39.40625 17.9329926178308  39.3272569444444 18.1487791027825  39.1692708333333 18.3986371379898  C 38.8984375 18.7620670073822  38.4244791666667 19.3753549119818  37.7473958333333 20.2385008517888  C 37.0703125 21.1016467915957  36.5625 21.7830777967064  36.2239583333333 22.282793867121  C 36.7430555555556 23.3730834752981  37.1267361111111 24.3043725156161  37.375 25.076660988075  L 42.5208333333333 25.8603066439523  C 42.7465277777778 25.9057353776263  42.9383680555556 26.0249858035207  43.0963541666667 26.2180579216354  Z M 59.9557291666667 43.9863713798978  C 63.3185763888889 44.3270868824532  65 44.679159568427  65 45.0425894378194  L 65 49.8126064735945  C 65 50.1760363429869  63.3185763888889 50.5281090289608  59.9557291666667 50.8688245315162  C 59.6848958333333 51.4821124361158  59.3463541666667 52.0726859738785  58.9401041666667 52.6405451448041  C 60.0911458333333 55.2072685973878  60.6666666666667 56.7745599091425  60.6666666666667 57.3424190800681  C 60.6666666666667 57.4332765474162  60.6215277777778 57.5127768313458  60.53125 57.5809199318569  C 57.7777777777778 59.1936399772856  56.3784722222222 60  56.3333333333333 60  C 56.1527777777778 60  55.6336805555556 59.4662123793299  54.7760416666667 58.3986371379898  C 53.9184027777778 57.3310618966496  53.3315972222222 56.5587734241908  53.015625 56.0817717206133  C 52.5642361111111 56.1272004542873  52.2256944444445 56.1499148211244  52 56.1499148211244  C 51.7743055555556 56.1499148211244  51.4357638888889 56.1272004542873  50.984375 56.0817717206133  C 50.6684027777778 56.5587734241908  50.0815972222222 57.3310618966496  49.2239583333333 58.3986371379898  C 48.3663194444445 59.4662123793299  47.8472222222222 60  47.6666666666667 60  C 47.6215277777778 60  46.2222222222222 59.1936399772856  43.46875 57.5809199318569  C 43.3784722222222 57.5127768313458  43.3333333333333 57.4332765474162  43.3333333333333 57.3424190800681  C 43.3333333333333 56.7745599091425  43.9088541666667 55.2072685973878  45.0598958333333 52.6405451448041  C 44.6536458333333 52.0726859738785  44.3151041666667 51.4821124361158  44.0442708333333 50.8688245315162  C 40.6814236111111 50.5281090289608  39 50.1760363429869  39 49.8126064735945  L 39 45.0425894378194  C 39 44.679159568427  40.6814236111111 44.3270868824532  44.0442708333333 43.9863713798978  C 44.3376736111111 43.3276547416241  44.6762152777778 42.7370812038614  45.0598958333333 42.2146507666099  C 43.9088541666667 39.6479273140261  43.3333333333333 38.0806360022714  43.3333333333333 37.5127768313458  C 43.3333333333333 37.4219193639977  43.3784722222222 37.3424190800681  43.46875 37.2742759795571  C 43.5590277777778 37.228847245883  43.9539930555556 37.0017035775128  44.6536458333333 36.5928449744463  C 45.3532986111111 36.1839863713799  46.0190972222222 35.7978421351505  46.6510416666667 35.4344122657581  C 47.2829861111111 35.0709823963657  47.6215277777778 34.8892674616695  47.6666666666667 34.8892674616695  C 47.8472222222222 34.8892674616695  48.3663194444445 35.4173764906303  49.2239583333333 36.473594548552  C 50.0815972222222 37.5298126064736  50.6684027777778 38.2964224872232  50.984375 38.7734241908007  C 51.4357638888889 38.7279954571266  51.7743055555556 38.7052810902896  52 38.7052810902896  C 52.2256944444445 38.7052810902896  52.5642361111111 38.7279954571266  53.015625 38.7734241908007  C 54.1666666666667 37.1607041453719  55.2048611111111 35.8886996024986  56.1302083333333 34.9574105621806  L 56.3333333333333 34.8892674616695  C 56.4236111111111 34.8892674616695  57.8229166666667 35.6842703009654  60.53125 37.2742759795571  C 60.6215277777778 37.3424190800681  60.6666666666667 37.4219193639977  60.6666666666667 37.5127768313458  C 60.6666666666667 38.0806360022714  60.0911458333333 39.6479273140261  58.9401041666667 42.2146507666099  C 59.3237847222222 42.7370812038614  59.6623263888889 43.3276547416241  59.9557291666667 43.9863713798978  Z M 59.9557291666667 9.09710391822828  C 63.3185763888889 9.43781942078365  65 9.78989210675752  65 10.1533219761499  L 65 14.923339011925  C 65 15.2867688813174  63.3185763888889 15.6388415672913  59.9557291666667 15.9795570698467  C 59.6848958333333 16.5928449744463  59.3463541666667 17.183418512209  58.9401041666667 17.7512776831346  C 60.0911458333333 20.3180011357183  60.6666666666667 21.885292447473  60.6666666666667 22.4531516183986  C 60.6666666666667 22.5440090857467  60.6215277777778 22.6235093696763  60.53125 22.6916524701874  C 57.7777777777778 24.3043725156161  56.3784722222222 25.1107325383305  56.3333333333333 25.1107325383305  C 56.1527777777778 25.1107325383305  55.6336805555556 24.5769449176604  54.7760416666667 23.5093696763203  C 53.9184027777778 22.4417944349801  53.3315972222222 21.6695059625213  53.015625 21.1925042589438  C 52.5642361111111 21.2379329926178  52.2256944444445 21.2606473594549  52 21.2606473594549  C 51.7743055555556 21.2606473594549  51.4357638888889 21.2379329926178  50.984375 21.1925042589438  C 50.6684027777778 21.6695059625213  50.0815972222222 22.4417944349801  49.2239583333333 23.5093696763203  C 48.3663194444445 24.5769449176604  47.8472222222222 25.1107325383305  47.6666666666667 25.1107325383305  C 47.6215277777778 25.1107325383305  46.2222222222222 24.3043725156161  43.46875 22.6916524701874  C 43.3784722222222 22.6235093696763  43.3333333333333 22.5440090857467  43.3333333333333 22.4531516183986  C 43.3333333333333 21.885292447473  43.9088541666667 20.3180011357183  45.0598958333333 17.7512776831346  C 44.6536458333333 17.183418512209  44.3151041666667 16.5928449744463  44.0442708333333 15.9795570698467  C 40.6814236111111 15.6388415672913  39 15.2867688813174  39 14.923339011925  L 39 10.1533219761499  C 39 9.78989210675752  40.6814236111111 9.43781942078365  44.0442708333333 9.09710391822828  C 44.3376736111111 8.43838727995457  44.6762152777778 7.84781374219193  45.0598958333333 7.32538330494037  C 43.9088541666667 4.75865985235661  43.3333333333333 3.19136854060192  43.3333333333333 2.62350936967632  C 43.3333333333333 2.53265190232822  43.3784722222222 2.45315161839864  43.46875 2.38500851788757  C 43.5590277777778 2.33957978421351  43.9539930555556 2.11243611584327  44.6536458333333 1.70357751277683  C 45.3532986111111 1.29471890971039  46.0190972222222 0.908574673480969  46.6510416666667 0.545144804088586  C 47.2829861111111 0.181714934696191  47.6215277777778 0  47.6666666666667 0  C 47.8472222222222 0  48.3663194444445 0.528109028960815  49.2239583333333 1.58432708688245  C 50.0815972222222 2.64054514480409  50.6684027777778 3.40715502555367  50.984375 3.88415672913118  C 51.4357638888889 3.83872799545712  51.7743055555556 3.81601362862011  52 3.81601362862011  C 52.2256944444445 3.81601362862011  52.5642361111111 3.83872799545712  53.015625 3.88415672913118  C 54.1666666666667 2.27143668370243  55.2048611111111 0.999432140829071  56.1302083333333 0.0681431005110733  L 56.3333333333333 0  C 56.4236111111111 0  57.8229166666667 0.795002839295851  60.53125 2.38500851788757  C 60.6215277777778 2.45315161839864  60.6666666666667 2.53265190232822  60.6666666666667 2.62350936967632  C 60.6666666666667 3.19136854060192  60.0911458333333 4.75865985235661  58.9401041666667 7.32538330494037  C 59.3237847222222 7.84781374219193  59.6623263888889 8.43838727995457  59.9557291666667 9.09710391822828  Z " fill-rule="nonzero" fill="#818181" stroke="none" transform="matrix(1 0 0 1 735 669 )" />
  </g>
</svg>