<?xml version="1.0" encoding="utf-8"?>
<svg version="1.1" xmlns:xlink="http://www.w3.org/1999/xlink" width="60px" height="66px" xmlns="http://www.w3.org/2000/svg">
  <g transform="matrix(1 0 0 1 -1245 -663 )">
    <path d="M 9.2578125 55.0925480769231  C 9.75260416666667 54.5901442307692  10 53.9951923076923  10 53.3076923076923  C 10 52.6201923076923  9.75260416666667 52.0252403846154  9.2578125 51.5228365384615  C 8.76302083333333 51.0204326923077  8.17708333333333 50.7692307692308  7.5 50.7692307692308  C 6.82291666666667 50.7692307692308  6.23697916666667 51.0204326923077  5.7421875 51.5228365384615  C 5.24739583333333 52.0252403846154  5 52.6201923076923  5 53.3076923076923  C 5 53.9951923076923  5.24739583333333 54.5901442307692  5.7421875 55.0925480769231  C 6.23697916666667 55.5949519230769  6.82291666666667 55.8461538461538  7.5 55.8461538461538  C 8.17708333333333 55.8461538461538  8.76302083333333 55.5949519230769  9.2578125 55.0925480769231  Z M 54.16015625 33.6742788461538  C 54.7200520833333 32.4579326923077  55 31.3870192307692  55 30.4615384615385  C 55 29.1129807692308  54.4921875 27.9296875  53.4765625 26.9116586538462  C 52.4609375 25.8936298076923  51.3020833333333 25.3846153846154  50 26  L 36.25 26  C 36.25 23.8509615384615  36.875 21.7421875  38.125 19.0582932692308  C 39.375 16.3743990384615  40 14.2524038461538  40 12.6923076923077  C 40 10.1009615384615  39.5833333333333 8.18389423076923  38.75 6.94110576923077  C 37.9166666666667 5.6983173076923  36.25 5.07692307692307  33.75 5.07692307692307  C 33.0729166666667 5.76442307692307  32.578125 6.88822115384615  32.265625 8.44831730769231  C 31.953125 10.0084134615385  31.5559895833333 11.6676682692308  31.07421875 13.4260817307692  C 30.5924479166667 15.1844951923077  29.8177083333333 16.6322115384615  28.75 17.7692307692308  C 28.1770833333333 18.3774038461538  27.1744791666667 19.5805288461538  25.7421875 21.3786057692308  C 25.6380208333333 21.5108173076923  25.3385416666667 21.9074519230769  24.84375 22.5685096153846  C 24.3489583333333 23.2295673076923  23.9388020833333 23.7716346153846  23.61328125 24.1947115384615  C 23.2877604166667 24.6177884615385  22.8385416666667 25.1796875  22.265625 25.8804086538462  C 21.6927083333333 26.5811298076923  21.171875 27.1628605769231  20.703125 27.6256009615385  C 20.234375 28.0883413461538  19.7330729166667 28.5576923076923  19.19921875 29.0336538461538  C 18.6653645833333 29.5096153846154  18.14453125 29.8665865384615  17.63671875 30.1045673076923  C 17.12890625 30.3425480769231  16.6666666666667 30.4615384615385  16.25 30.4615384615385  L 15 30.4615384615385  L 15 55.8461538461538  L 16.25 55.8461538461538  C 16.5885416666667 55.8461538461538  16.9986979166667 55.8858173076923  17.48046875 55.9651442307692  C 17.9622395833333 56.0444711538462  18.3919270833333 56.1304086538462  18.76953125 56.2229567307692  C 19.1471354166667 56.3155048076923  19.6419270833333 56.4609375  20.25390625 56.6592548076923  C 20.8658854166667 56.8575721153846  21.3216145833333 57.0096153846154  21.62109375 57.1153846153846  C 21.9205729166667 57.2211538461538  22.3828125 57.3864182692308  23.0078125 57.6111778846154  C 23.6328125 57.8359375  24.0104166666667 57.9747596153846  24.140625 58.0276442307692  C 29.6354166666667 59.9579326923077  34.0885416666667 60.9230769230769  37.5 60.9230769230769  L 42.2265625 60.9230769230769  C 47.2265625 60.9230769230769  49.7265625 58.7151442307692  49.7265625 54.2992788461538  C 49.7265625 53.6117788461538  49.6614583333333 52.8713942307692  49.53125 52.078125  C 50.3125 51.6550480769231  50.9309895833333 50.9609375  51.38671875 49.9957932692308  C 51.8424479166667 49.0306490384615  52.0703125 48.0588942307692  52.0703125 47.0805288461538  C 52.0703125 46.1021634615385  51.8359375 45.1899038461538  51.3671875 44.34375  C 52.7473958333333 43.0216346153846  53.4375 41.4483173076923  53.4375 39.6237980769231  C 53.4375 38.9627403846154  53.3072916666667 38.2289663461538  53.046875 37.4224759615385  C 52.7864583333333 36.6159855769231  52.4609375 35.9879807692308  52.0703125 35.5384615384615  C 52.9036458333333 35.5120192307692  53.6002604166667 34.890625  54.16015625 33.6742788461538  Z M 57.03125 23.3221153846154  C 59.0104166666667 25.3317307692308  60 27.6983173076923  60 30.421875  C 60 32.7752403846154  59.3619791666667 34.9302884615385  58.0859375 36.8870192307692  C 58.3203125 37.7596153846154  58.4375 38.671875  58.4375 39.6237980769231  C 58.4375 41.6598557692308  57.9427083333333 43.5637019230769  56.953125 45.3353365384615  C 57.03125 45.890625  57.0703125 46.4591346153846  57.0703125 47.0408653846154  C 57.0703125 49.7115384615385  56.2890625 52.0649038461538  54.7265625 54.1009615384615  C 54.7526041666667 57.7764423076923  53.6458333333333 60.6784855769231  51.40625 62.8070913461538  C 49.1666666666667 64.9356971153846  46.2109375 66  42.5390625 66  L 41.1328125 66  L 37.5 66  C 35 66  32.5325520833333 65.7025240384615  30.09765625 65.1075721153846  C 27.6627604166667 64.5126201923077  24.84375 63.6466346153846  21.640625 62.5096153846154  C 18.6197916666667 61.4519230769231  16.8229166666667 60.9230769230769  16.25 61  L 5 61  C 3.61979166666667 60.9230769230769  2.44140625 60.4272836538462  1.46484375 59.4356971153846  C 0.48828125 58.4441105769231  0 57.2475961538462  0 55.8461538461538  L 0 30.4615384615385  C 0 29.0600961538462  0.48828125 27.8635817307692  1.46484375 26.8719951923077  C 2.44140625 25.8804086538462  3.61979166666667 25.3846153846154  5 26  L 15.703125 26  C 16.640625 24.75  18.4244791666667 22.7007211538462  21.0546875 19.2367788461538  C 22.5651041666667 17.2536057692308  23.9583333333333 15.5612980769231  25.234375 14.1598557692308  C 25.859375 13.4987980769231  26.3216145833333 12.3683894230769  26.62109375 10.7686298076923  C 26.9205729166667 9.16887019230769  27.3177083333333 7.49639423076923  27.8125 5.75120192307693  C 28.3072916666667 4.00600961538462  29.1145833333333 2.578125  30.234375 1.46754807692307  C 31.25 0.489182692307696  32.421875 0  33.75 0  C 35.9375 0  37.9036458333333 0.429687500000005  39.6484375 1.2890625  C 41.3932291666667 2.1484375  42.7213541666667 3.49038461538462  43.6328125 5.31490384615385  C 44.5442708333333 7.13942307692307  45 9.59855769230769  45 12.6923076923077  C 45 15.1514423076923  44.375 17.6899038461538  43.125 20.3076923076923  L 50 20.3076923076923  C 52.7083333333333 20.3076923076923  55.0520833333333 21.3125  57.03125 23.3221153846154  Z " fill-rule="nonzero" fill="#808080" stroke="none" transform="matrix(1 0 0 1 1245 663 )" />
  </g>
</svg>