<?xml version="1.0" encoding="utf-8"?>
<svg version="1.1" xmlns:xlink="http://www.w3.org/1999/xlink" width="52px" height="52px" xmlns="http://www.w3.org/2000/svg">
  <g transform="matrix(1 0 0 1 -625 -1074 )">
    <path d="M 51.8892045454545 40.2926136363636  C 51.9630681818182 40.4649621212121  52 40.7234848484848  52 41.0681818181818  C 52 41.7329545454545  51.8768939393939 42.6008522727273  51.6306818181818 43.671875  C 51.3844696969697 44.7428977272727  51.125946969697 45.5861742424242  50.8551136363636 46.2017045454545  C 50.3380681818182 47.4327651515151  48.8361742424242 48.7376893939394  46.3494318181818 50.1164772727273  C 44.0350378787879 51.3721590909091  41.7452651515152 52  39.4801136363636 52  C 38.8153409090909 52  38.1628787878788 51.9569128787879  37.5227272727273 51.8707386363636  C 36.8825757575758 51.7845643939394  36.1747159090909 51.6306818181818  35.3991477272727 51.4090909090909  C 34.6235795454545 51.1875  34.0449810606061 51.0089962121212  33.6633522727273 50.8735795454545  C 33.2817234848485 50.7381628787879  32.5984848484849 50.4857954545455  31.6136363636364 50.1164772727273  C 30.6287878787879 49.7471590909091  30.0255681818182 49.5255681818182  29.8039772727273 49.4517045454545  C 27.3910984848485 48.5899621212121  25.2367424242424 47.5681818181818  23.3409090909091 46.3863636363636  C 20.2140151515152 44.4412878787879  16.9640151515152 41.782196969697  13.5909090909091 38.4090909090909  C 10.217803030303 35.0359848484848  7.55871212121212 31.7859848484849  5.61363636363636 28.6590909090909  C 4.43181818181818 26.7632575757576  3.41003787878788 24.6089015151515  2.54829545454545 22.1960227272727  C 2.47443181818182 21.9744318181818  2.25284090909091 21.3712121212121  1.88352272727273 20.3863636363636  C 1.51420454545455 19.4015151515151  1.26183712121212 18.7182765151515  1.12642045454545 18.3366477272727  C 0.991003787878788 17.9550189393939  0.8125 17.3764204545455  0.590909090909091 16.6008522727273  C 0.369318181818182 15.8252840909091  0.215435606060606 15.1174242424242  0.129261363636364 14.4772727272727  C 0.0430871212121212 13.8371212121212  0 13.1846590909091  0 12.5198863636364  C 0 10.2547348484848  0.627840909090909 7.96496212121212  1.88352272727273 5.65056818181818  C 3.26231060606061 3.16382575757575  4.56723484848485 1.66193181818182  5.79829545454546 1.14488636363636  C 6.41382575757576 0.874053030303026  7.25710227272727 0.615530303030297  8.328125 0.369318181818181  C 9.39914772727273 0.123106060606058  10.2670454545455 0  10.9318181818182 0  C 11.2765151515152 0  11.5350378787879 0.0369318181818192  11.7073863636364 0.110795454545452  C 12.1505681818182 0.258522727272729  12.8030303030303 1.19412878787879  13.6647727272727 2.91761363636364  C 13.9356060606061 3.38541666666666  14.3049242424242 4.05018939393939  14.7727272727273 4.91193181818182  C 15.2405303030303 5.77367424242424  15.6714015151515 6.55539772727273  16.0653409090909 7.25710227272727  C 16.4592803030303 7.95880681818182  16.8409090909091 8.61742424242424  17.2102272727273 9.23295454545455  C 17.2840909090909 9.33143939393939  17.4995265151515 9.63920454545455  17.8565340909091 10.15625  C 18.2135416666667 10.6732954545455  18.4782196969697 11.110321969697  18.6505681818182 11.4673295454545  C 18.8229166666667 11.8243371212121  18.9090909090909 12.1751893939394  18.9090909090909 12.5198863636364  C 18.9090909090909 13.0123106060606  18.5582386363636 13.6278409090909  17.8565340909091 14.3664772727273  C 17.1548295454545 15.1051136363636  16.391571969697 15.782196969697  15.5667613636364 16.3977272727273  C 14.7419507575758 17.0132575757576  13.9786931818182 17.6657196969697  13.2769886363636 18.3551136363636  C 12.5752840909091 19.0445075757576  12.2244318181818 19.6107954545455  12.2244318181818 20.0539772727273  C 12.2244318181818 20.2755681818182  12.2859848484848 20.5525568181818  12.4090909090909 20.8849431818182  C 12.532196969697 21.2173295454545  12.6368371212121 21.469696969697  12.7230113636364 21.6420454545455  C 12.8091856060606 21.8143939393939  12.9815340909091 22.1098484848485  13.2400568181818 22.5284090909091  C 13.4985795454545 22.9469696969697  13.6401515151515 23.1808712121212  13.6647727272727 23.2301136363636  C 15.5359848484848 26.6032196969697  17.6780303030303 29.4962121212121  20.0909090909091 31.9090909090909  C 22.5037878787879 34.3219696969697  25.3967803030303 36.4640151515151  28.7698863636364 38.3352272727273  C 28.8191287878788 38.3598484848485  29.0530303030303 38.5014204545455  29.4715909090909 38.7599431818182  C 29.8901515151515 39.0184659090909  30.1856060606061 39.1908143939394  30.3579545454545 39.2769886363636  C 30.530303030303 39.3631628787879  30.7826704545455 39.467803030303  31.1150568181818 39.5909090909091  C 31.4474431818182 39.7140151515151  31.7244318181818 39.7755681818182  31.9460227272727 39.7755681818182  C 32.3892045454545 39.7755681818182  32.9554924242424 39.4247159090909  33.6448863636364 38.7230113636364  C 34.3342803030303 38.0213068181818  34.9867424242424 37.2580492424242  35.6022727272727 36.4332386363636  C 36.217803030303 35.608428030303  36.8948863636364 34.8451704545455  37.6335227272727 34.1434659090909  C 38.3721590909091 33.4417613636364  38.9876893939394 33.0909090909091  39.4801136363636 33.0909090909091  C 39.8248106060606 33.0909090909091  40.1756628787879 33.1770833333333  40.5326704545455 33.3494318181818  C 40.889678030303 33.5217803030303  41.3267045454545 33.7864583333333  41.84375 34.1434659090909  C 42.3607954545455 34.5004734848485  42.6685606060606 34.7159090909091  42.7670454545455 34.7897727272727  C 43.3825757575758 35.1590909090909  44.0411931818182 35.5407196969697  44.7428977272727 35.9346590909091  C 45.4446022727273 36.3285984848485  46.2263257575758 36.7594696969697  47.0880681818182 37.2272727272727  C 47.9498106060606 37.6950757575758  48.6145833333333 38.0643939393939  49.0823863636364 38.3352272727273  C 50.8058712121212 39.1969696969697  51.7414772727273 39.8494318181818  51.8892045454545 40.2926136363636  Z " fill-rule="nonzero" fill="#ffffff" stroke="none" transform="matrix(1 0 0 1 625 1074 )" />
  </g>
</svg>