<?xml version="1.0" encoding="utf-8"?>
<svg version="1.1" xmlns:xlink="http://www.w3.org/1999/xlink" width="72px" height="48px" xmlns="http://www.w3.org/2000/svg">
  <g transform="matrix(1 0 0 1 -402 -1076 )">
    <path d="M 28.8 30  L 28.8 33  L 43.2 33  L 43.2 30  L 38 30  L 38 13.2  L 34.125 13.2  L 28.575 18.3375  L 31.4625 21.3375  C 32.5125 20.4125  33.2 19.7  33.525 19.2  L 34 19.2  L 34 30  L 28.8 30  Z M 47.2125 18.675  C 47.7375 20.475  48 22.25  48 24  C 48 25.75  47.7375 27.525  47.2125 29.325  C 46.6875 31.125  45.94375 32.8  44.98125 34.35  C 44.01875 35.9  42.75 37.1625  41.175 38.1375  C 39.6 39.1125  37.875 39.6  36 39.6  C 34.125 39.6  32.4 39.1125  30.825 38.1375  C 29.25 37.1625  27.98125 35.9  27.01875 34.35  C 26.05625 32.8  25.3125 31.125  24.7875 29.325  C 24.2625 27.525  24 25.75  24 24  C 24 22.25  24.2625 20.475  24.7875 18.675  C 25.3125 16.875  26.05625 15.2  27.01875 13.65  C 27.98125 12.1  29.25 10.8375  30.825 9.8625  C 32.4 8.8875  34.125 8.4  36 8.4  C 37.875 8.4  39.6 8.8875  41.175 9.8625  C 42.75 10.8375  44.01875 12.1  44.98125 13.65  C 45.94375 15.2  46.6875 16.875  47.2125 18.675  Z M 60.4125 36.4125  C 62.2875 34.5375  64.55 33.6  67 33.6  L 67 14.4  C 64.55 14.4  62.2875 13.4625  60.4125 11.5875  C 58.5375 9.7125  57.6 7.44999999999999  57.6 5  L 14.4 5  C 14.4 7.44999999999999  13.4625 9.7125  11.5875 11.5875  C 9.7125 13.4625  7.45 14.4  5 14.4  L 5 33.6  C 7.45 33.6  9.7125 34.5375  11.5875 36.4125  C 13.4625 38.2875  14.4 40.55  14.4 43  L 57.6 43  C 57.6 40.55  58.5375 38.2875  60.4125 36.4125  Z M 71.2875 0.712500000000002  C 71.7625 1.1875  72 1.75  72 2.4  L 72 45.6  C 72 46.25  71.7625 46.8125  71.2875 47.2875  C 70.8125 47.7625  70.25 48  69.6 48  L 2.4 48  C 1.75 48  1.1875 47.7625  0.7125 47.2875  C 0.2375 46.8125  0 46.25  0 45.6  L 0 2.4  C 0 1.75  0.2375 1.1875  0.7125 0.712500000000002  C 1.1875 0.237499999999997  1.75 0  2.4 0  L 69.6 0  C 70.25 0  70.8125 0.237499999999997  71.2875 0.712500000000002  Z " fill-rule="nonzero" fill="#ffffff" stroke="none" transform="matrix(1 0 0 1 402 1076 )" />
  </g>
</svg>