<?xml version="1.0" encoding="utf-8"?>
<svg version="1.1" xmlns:xlink="http://www.w3.org/1999/xlink" width="101px" height="83px" xmlns="http://www.w3.org/2000/svg">
  <g transform="matrix(1 0 0 1 -318 -1509 )">
    <path d="M 30 59.7488839285714  L 30 75.5892857142857  L 48 66.6964285714286  L 48 52.1529017857143  L 30 59.7488839285714  Z M 7.98345588235294 46.5485491071429  L 26.7352941176471 54.5613839285714  L 45.4871323529412 46.5485491071429  L 26.7352941176471 38.5357142857143  L 7.98345588235294 46.5485491071429  Z M 77 59.7488839285714  L 77 75.5892857142857  L 95 66.6964285714286  L 95 52.1529017857143  L 77 59.7488839285714  Z M 55.5128676470588 46.5485491071429  L 74.2647058823529 54.5613839285714  L 93.0165441176471 46.5485491071429  L 74.2647058823529 38.5357142857143  L 55.5128676470588 46.5485491071429  Z M 53 28.6238839285714  L 53 40.9905133928571  L 71 33.3482142857143  L 71 21.0279017857143  L 53 28.6238839285714  Z M 30.0307904411765 14.6824776785714  L 50.5 23.4363839285714  L 70.9692095588235 14.6824776785714  L 50.5 5.92857142857143  L 30.0307904411765 14.6824776785714  Z M 100.025275735294 44.1863839285714  C 100.675091911765 45.1744791666667  101 46.2552083333333  101 47.4285714285714  L 101 66.6964285714286  C 101 67.8080357142857  100.706035539216 68.8424479166667  100.118106617647 69.7996651785714  C 99.5301776960784 70.7568824404762  98.7256433823529 71.4825148809524  97.7045036764706 71.9765625  L 76.9103860294118 82.3515625  C 76.1367953431373 82.7838541666667  75.2549019607843 83  74.2647058823529 83  C 73.2745098039216 83  72.3926164215686 82.7838541666667  71.6190257352941 82.3515625  L 50.8249080882353 71.9765625  C 50.7011335784314 71.9148065476191  50.5928308823529 71.8530505952381  50.5 71.7912946428572  C 50.438112745098 71.8530505952381  50.3298100490196 71.9148065476191  50.1750919117647 71.9765625  L 29.3809742647059 82.3515625  C 28.6073835784314 82.7838541666667  27.7254901960784 83  26.7352941176471 83  C 25.7450980392157 83  24.8632046568627 82.7838541666667  24.0896139705882 82.3515625  L 3.29549632352941 71.9765625  C 2.27435661764706 71.4825148809524  1.46982230392157 70.7568824404762  0.881893382352941 69.7996651785714  C 0.293964460784314 68.8424479166667  0 67.8080357142857  0 66.6964285714286  L 0 47.4285714285714  C 0 46.2552083333333  0.332643995098039 45.1744791666667  0.997931985294118 44.1863839285714  C 1.6632199754902 43.1982886904762  2.53737745098039 42.4572172619048  3.62040441176471 41.9631696428571  L 24 33.3482142857143  L 24 14.8214285714286  C 23.7647058823529 13.6480654761905  24.097349877451 12.5673363095238  24.7626378676471 11.5792410714286  C 25.4279258578431 10.5911458333333  26.3020833333333 9.85007440476189  27.3851102941176 9.35602678571429  L 48.1792279411765 0.463169642857139  C 48.890931372549 0.154389880952392  49.6645220588235 0  50.5 0  C 51.3354779411765 0  52.109068627451 0.154389880952392  52.8207720588235 0.463169642857139  L 73.6148897058823 9.35602678571429  C 74.6979166666667 9.85007440476189  75.5720741421569 10.5911458333333  76.2373621323529 11.5792410714286  C 76.902650122549 12.5673363095238  77.2352941176471 13.6480654761905  77 14.8214285714286  L 77 33.3482142857143  L 97.3795955882353 41.9631696428571  C 98.4935661764706 42.4572172619048  99.3754595588235 43.1982886904762  100.025275735294 44.1863839285714  Z " fill-rule="nonzero" fill="#7e7e7e" stroke="none" transform="matrix(1 0 0 1 318 1509 )" />
  </g>
</svg>