<?xml version="1.0" encoding="utf-8"?>
<svg version="1.1" xmlns:xlink="http://www.w3.org/1999/xlink" width="64px" height="50px" xmlns="http://www.w3.org/2000/svg">
  <g transform="matrix(1 0 0 1 -834 -1076 )">
    <path d="M 59.0892857142857 45.1171875  C 59.3154761904762 44.8922821969697  59.4285714285714 44.625946969697  59 44.3181818181818  L 59 17.0454545454545  C 58.6666666666667 17.8977272727273  57.8452380952381 18.6789772727273  56.9642857142857 19.3892045454545  C 50.5833333333333 24.2660984848485  45.5119047619048 28.2670454545455  41.75 31.3920454545455  C 40.5357142857143 32.4100378787879  39.5476190476191 33.203125  38.7857142857143 33.7713068181818  C 38.0238095238095 34.3394886363636  36.9940476190476 34.9135890151515  35.6964285714286 35.4936079545455  C 34.3988095238095 36.0736268939394  33.1785714285714 36.3636363636364  32.0357142857143 36.3636363636364  L 32 36.3636363636364  L 31.9642857142857 36.3636363636364  C 30.8214285714286 36.3636363636364  29.6011904761905 36.0736268939394  28.3035714285714 35.4936079545455  C 27.0059523809524 34.9135890151515  25.9761904761905 34.3394886363636  25.2142857142857 33.7713068181818  C 24.452380952381 33.203125  23.4642857142857 32.4100378787879  22.25 31.3920454545455  C 18.4880952380952 28.2670454545455  13.4166666666667 24.2660984848485  7.03571428571429 19.3892045454545  C 6.15476190476191 18.6789772727273  5.33333333333333 17.8977272727273  5 17.0454545454545  L 5 44.3181818181818  C 4.57142857142857 44.625946969697  4.68452380952381 44.8922821969697  4.91071428571429 45.1171875  C 5.13690476190476 45.3420928030303  5.40476190476191 45.4545454545455  5.71428571428571 45  L 58.2857142857143 45  C 58.5952380952381 45.4545454545455  58.8630952380952 45.3420928030303  59.0892857142857 45.1171875  Z M 57.7678571428571 11.6654829545455  C 58.875 9.94910037878787  59.4285714285714 8.39251893939394  59.4285714285714 6.99573863636363  L 59.4285714285714 6.60511363636363  L 59.4285714285714 6.12571022727273  C 59.4285714285714 6.12571022727273  59.4226190476191 5.97182765151514  59.4107142857143 5.6640625  C 59.3988095238095 5.35629734848485  59.3630952380952 5.20833333333333  59.3035714285714 5.22017045454545  C 59.2440476190476 5.23200757575757  59.1785714285714 5.12547348484848  59.1071428571429 4.90056818181818  C 59.0357142857143 4.67566287878787  58.9285714285714 4.58688446969697  58.7857142857143 4.63423295454545  C 58.6428571428571 4.68158143939394  58.4761904761905 4.65198863636363  58.2857142857143 5  L 5.71428571428571 5  C 5.40476190476191 4.54545454545455  5.13690476190476 4.65790719696969  4.91071428571429 4.8828125  C 4.68452380952381 5.1077178030303  4.57142857142857 5.37405303030303  4.57142857142857 5.68181818181818  C 4.57142857142857 9.65909090909091  6.32142857142857 13.0208333333333  9.82142857142857 15.7670454545455  C 14.4166666666667 19.3655303030303  19.1904761904762 23.1178977272727  24.1428571428571 27.0241477272727  C 24.2857142857143 27.1425189393939  24.702380952381 27.4917140151515  25.3928571428571 28.0717329545455  C 26.0833333333333 28.6517518939394  26.6309523809524 29.0956439393939  27.0357142857143 29.4034090909091  C 27.4404761904762 29.7111742424242  27.9702380952381 30.0840435606061  28.625 30.5220170454545  C 29.2797619047619 30.959990530303  29.8809523809524 31.2855113636364  30.4285714285714 31.4985795454545  C 30.9761904761905 31.7116477272727  31.4880952380952 31.8181818181818  31.9642857142857 31.8181818181818  L 32 31.8181818181818  L 32.0357142857143 31.8181818181818  C 32.5119047619048 31.8181818181818  33.0238095238095 31.7116477272727  33.5714285714286 31.4985795454545  C 34.1190476190476 31.2855113636364  34.7202380952381 30.959990530303  35.375 30.5220170454545  C 36.0297619047619 30.0840435606061  36.5595238095238 29.7111742424242  36.9642857142857 29.4034090909091  C 37.3690476190476 29.0956439393939  37.9166666666667 28.6517518939394  38.6071428571429 28.0717329545455  C 39.2976190476191 27.4917140151515  39.7142857142857 27.1425189393939  39.8571428571429 27.0241477272727  C 44.8095238095238 23.1178977272727  49.5833333333333 19.3655303030303  54.1785714285714 15.7670454545455  C 55.4642857142857 14.749053030303  56.6607142857143 13.381865530303  57.7678571428571 11.6654829545455  Z M 62.3214285714286 1.66903409090909  C 63.4404761904762 2.78172348484848  64 4.11931818181818  64 5.68181818181818  L 64 44.3181818181818  C 64 45.8806818181818  63.4404761904762 47.2182765151515  62.3214285714286 48.3309659090909  C 61.202380952381 49.4436553030303  59.8571428571429 50  58.2857142857143 50  L 5.71428571428571 50  C 4.14285714285714 50  2.79761904761905 49.4436553030303  1.67857142857143 48.3309659090909  C 0.55952380952381 47.2182765151515  0 45.8806818181818  0 44.3181818181818  L 0 5.68181818181818  C 0 4.11931818181818  0.55952380952381 2.78172348484848  1.67857142857143 1.66903409090909  C 2.79761904761905 0.556344696969691  4.14285714285714 0  5.71428571428571 0  L 58.2857142857143 0  C 59.8571428571429 0  61.202380952381 0.556344696969691  62.3214285714286 1.66903409090909  Z " fill-rule="nonzero" fill="#ffffff" stroke="none" transform="matrix(1 0 0 1 834 1076 )" />
  </g>
</svg>