<?xml version="1.0" encoding="utf-8"?>
<svg version="1.1" xmlns:xlink="http://www.w3.org/1999/xlink" width="100px" height="66px" xmlns="http://www.w3.org/2000/svg">
  <g transform="matrix(1 0 0 1 -1102 -1513 )">
    <path d="M 40 41.25  L 40 46  L 60 46  L 60 41.25  L 53 41.25  L 53 18.15  L 47.3958333333333 18.15  L 39.6875 25.2140625  L 43.6979166666667 29.3390625  C 45.15625 28.0671875  46.1111111111111 27.0875  46.5625 26.4  L 47 26.4  L 47 41.25  L 40 41.25  Z M 65.5729166666667 25.678125  C 66.3020833333333 28.153125  66.6666666666667 30.59375  66.6666666666667 33  C 66.6666666666667 35.40625  66.3020833333333 37.846875  65.5729166666667 40.321875  C 64.84375 42.796875  63.8107638888889 45.1  62.4739583333333 47.23125  C 61.1371527777778 49.3625  59.375 51.0984375  57.1875 52.4390625  C 55 53.7796875  52.6041666666667 54.45  50 54.45  C 47.3958333333333 54.45  45 53.7796875  42.8125 52.4390625  C 40.625 51.0984375  38.8628472222222 49.3625  37.5260416666667 47.23125  C 36.1892361111111 45.1  35.15625 42.796875  34.4270833333333 40.321875  C 33.6979166666667 37.846875  33.3333333333333 35.40625  33.3333333333333 33  C 33.3333333333333 30.59375  33.6979166666667 28.153125  34.4270833333333 25.678125  C 35.15625 23.203125  36.1892361111111 20.9  37.5260416666667 18.76875  C 38.8628472222222 16.6375  40.625 14.9015625  42.8125 13.5609375  C 45 12.2203125  47.3958333333333 11.55  50 11.55  C 52.6041666666667 11.55  55 12.2203125  57.1875 13.5609375  C 59.375 14.9015625  61.1371527777778 16.6375  62.4739583333333 18.76875  C 63.8107638888889 20.9  64.84375 23.203125  65.5729166666667 25.678125  Z M 83.90625 50.0671875  C 86.5104166666667 47.4890625  89.6527777777778 46.2  93 46.2  L 93 19.8  C 89.6527777777778 19.8  86.5104166666667 18.5109375  83.90625 15.9328125  C 81.3020833333333 13.3546875  80 10.24375  80 7  L 20 7  C 20 10.24375  18.6979166666667 13.3546875  16.09375 15.9328125  C 13.4895833333333 18.5109375  10.3472222222222 19.8  7 19.8  L 7 46.2  C 10.3472222222222 46.2  13.4895833333333 47.4890625  16.09375 50.0671875  C 18.6979166666667 52.6453125  20 55.75625  20 59  L 80 59  C 80 55.75625  81.3020833333333 52.6453125  83.90625 50.0671875  Z M 99.0104166666667 0.979687500000003  C 99.6701388888889 1.6328125  100 2.40625  100 3.3  L 100 62.7  C 100 63.59375  99.6701388888889 64.3671875  99.0104166666667 65.0203125  C 98.3506944444445 65.6734375  97.5694444444445 66  96.6666666666667 66  L 3.33333333333333 66  C 2.43055555555556 66  1.64930555555556 65.6734375  0.989583333333333 65.0203125  C 0.329861111111111 64.3671875  0 63.59375  0 62.7  L 0 3.3  C 0 2.40625  0.329861111111111 1.6328125  0.989583333333333 0.979687500000003  C 1.64930555555556 0.326562499999996  2.43055555555556 0  3.33333333333333 0  L 96.6666666666667 0  C 97.5694444444445 0  98.3506944444445 0.326562499999996  99.0104166666667 0.979687500000003  Z " fill-rule="nonzero" fill="#818181" stroke="none" transform="matrix(1 0 0 1 1102 1513 )" />
  </g>
</svg>