<?xml version="1.0" encoding="utf-8"?>
<svg version="1.1" xmlns:xlink="http://www.w3.org/1999/xlink" width="62px" height="52px" xmlns="http://www.w3.org/2000/svg">
  <g transform="matrix(1 0 0 1 -1046 -1076 )">
    <path d="M 59.5036057692308 17.2471590909091  C 61.1678685897436 20.6941287878788  62 24.2765151515151  62 27.9943181818182  C 62 32.0814393939394  61.2548076923077 35.9469696969697  59.7644230769231 39.5909090909091  L 59.0192307692308 41.4005681818182  L 52.1262019230769 42.6193181818182  C 51.5797275641026 44.6628787878788  50.4557291666667 46.3432765151515  48.7542067307692 47.6605113636364  C 47.0526842948718 48.9777462121212  45.1089743589744 49.6363636363636  42.9230769230769 49.6363636363636  L 42.9230769230769 50.8181818181818  C 42.9230769230769 51.1628787878788  42.8112980769231 51.4460227272727  42.5877403846154 51.6676136363636  C 42.3641826923077 51.8892045454545  42.0785256410256 52  41.7307692307692 52  L 39.3461538461538 52  C 38.9983974358974 52  38.7127403846154 51.8892045454545  38.4891826923077 51.6676136363636  C 38.265625 51.4460227272727  38.1538461538462 51.1628787878788  38 50.8181818181818  L 38 29.5454545454545  C 38.1538461538462 29.2007575757576  38.265625 28.9176136363636  38.4891826923077 28.6960227272727  C 38.7127403846154 28.4744318181818  38.9983974358974 28.3636363636364  39.3461538461538 28.3636363636364  L 41.7307692307692 28.3636363636364  C 42.0785256410256 28.3636363636364  42.3641826923077 28.4744318181818  42.5877403846154 28.6960227272727  C 42.8112980769231 28.9176136363636  42.9230769230769 29.2007575757576  42.9230769230769 29.5454545454545  L 42.9230769230769 30.7272727272727  C 44.6866987179487 30.7272727272727  46.3012820512821 31.1642992424242  47.7668269230769 32.0383522727273  C 49.2323717948718 32.9124053030303  50.3874198717949 34.0880681818182  51.2319711538462 35.5653409090909  L 53.765625 35.1221590909091  C 54.4859775641026 32.7831439393939  54.8461538461538 30.407196969697  54.8461538461538 27.9943181818182  C 54.8461538461538 24.3503787878788  53.7532051282051 20.9157196969697  51.5673076923077 17.6903409090909  C 49.3814102564103 14.4649621212121  46.4441105769231 11.8920454545455  42.7554086538462 9.97159090909091  C 39.0667067307692 8.05113636363636  35.1482371794872 7.09090909090909  31 7.09090909090909  C 26.8517628205128 7.09090909090909  22.9332932692308 8.05113636363636  19.2445913461538 9.97159090909091  C 15.5558894230769 11.8920454545455  12.6185897435897 14.4649621212121  10.4326923076923 17.6903409090909  C 8.24679487179487 20.9157196969697  7.15384615384615 24.3503787878788  7.15384615384615 27.9943181818182  C 7.15384615384615 30.407196969697  7.51402243589744 32.7831439393939  8.234375 35.1221590909091  L 10.7680288461538 35.5653409090909  C 11.6125801282051 34.0880681818182  12.7676282051282 32.9124053030303  14.2331730769231 32.0383522727273  C 15.698717948718 31.1642992424242  17.3133012820513 30.7272727272727  19.0769230769231 30.7272727272727  L 19.0769230769231 29.5454545454545  C 19.0769230769231 29.2007575757576  19.1887019230769 28.9176136363636  19.4122596153846 28.6960227272727  C 19.6358173076923 28.4744318181818  19.9214743589744 28.3636363636364  20.2692307692308 28.3636363636364  L 22.6538461538462 28.3636363636364  C 23.0016025641026 28.3636363636364  23.2872596153846 28.4744318181818  23.5108173076923 28.6960227272727  C 23.734375 28.9176136363636  23.8461538461538 29.2007575757576  24 29.5454545454545  L 24 50.8181818181818  C 23.8461538461538 51.1628787878788  23.734375 51.4460227272727  23.5108173076923 51.6676136363636  C 23.2872596153846 51.8892045454545  23.0016025641026 52  22.6538461538462 52  L 20.2692307692308 52  C 19.9214743589744 52  19.6358173076923 51.8892045454545  19.4122596153846 51.6676136363636  C 19.1887019230769 51.4460227272727  19.0769230769231 51.1628787878788  19.0769230769231 50.8181818181818  L 19.0769230769231 49.6363636363636  C 16.8910256410256 49.6363636363636  14.9473157051282 48.9777462121212  13.2457932692308 47.6605113636364  C 11.5442708333333 46.3432765151515  10.4202724358974 44.6628787878788  9.87379807692308 42.6193181818182  L 2.98076923076923 41.4005681818182  L 2.23557692307692 39.5909090909091  C 0.745192307692308 35.9469696969697  0 32.0814393939394  0 27.9943181818182  C 0 24.2765151515151  0.83213141025641 20.6941287878788  2.49639423076923 17.2471590909091  C 4.16065705128205 13.8001893939394  6.3838141025641 10.8148674242424  9.16586538461539 8.29119318181818  C 11.9479166666667 5.76751893939394  15.2516025641026 3.75473484848485  19.0769230769231 2.25284090909091  C 22.9022435897436 0.750946969696968  26.8766025641026 0  31 0  C 35.1233974358974 0  39.0977564102564 0.750946969696968  42.9230769230769 2.25284090909091  C 46.7483974358974 3.75473484848485  50.0520833333333 5.76751893939394  52.8341346153846 8.29119318181818  C 55.6161858974359 10.8148674242424  57.839342948718 13.8001893939394  59.5036057692308 17.2471590909091  Z " fill-rule="nonzero" fill="#ffffff" stroke="none" transform="matrix(1 0 0 1 1046 1076 )" />
  </g>
</svg>