<?xml version="1.0" encoding="utf-8"?>
<svg version="1.1" xmlns:xlink="http://www.w3.org/1999/xlink" width="100px" height="74px" xmlns="http://www.w3.org/2000/svg">
  <g transform="matrix(1 0 0 1 -710 -1509 )">
    <path d="M 66.171875 39.8643465909091  C 66.5017361111111 39.5314867424242  66.6666666666667 39.1373106060606  66.6666666666667 38.6818181818182  C 66.6666666666667 38.1912878787879  66.5104166666667 37.7883522727273  66.1979166666667 37.4730113636364  L 47.8645833333333 18.9730113636364  C 47.5520833333333 18.6576704545455  47.1527777777778 18.5  46.6666666666667 18.5  C 46.1805555555556 18.5  45.78125 18.6576704545455  45.46875 18.9730113636364  L 27.1875 37.4204545454545  C 26.8402777777778 37.8409090909091  26.6666666666667 38.2613636363636  26.6666666666667 38.6818181818182  C 26.6666666666667 39.1723484848485  26.8229166666667 39.5752840909091  27.1354166666667 39.890625  C 27.4479166666667 40.2059659090909  27.8472222222222 40.3636363636364  28.3333333333333 40  L 40 40  L 40 58.8636363636364  C 40 59.3191287878788  40.1649305555556 59.7133049242424  40.4947916666667 60.0461647727273  C 40.8246527777778 60.3790246212121  41.2152777777778 60.5454545454545  41.6666666666667 60  L 51.6666666666667 60  C 52.1180555555556 60.5454545454545  52.5086805555556 60.3790246212121  52.8385416666667 60.0461647727273  C 53.1684027777778 59.7133049242424  53.3333333333333 59.3191287878788  53 58.8636363636364  L 53 40  L 65 40  C 65.4513888888889 40.3636363636364  65.8420138888889 40.1972064393939  66.171875 39.8643465909091  Z M 95.6510416666667 41.2833806818182  C 98.5503472222222 44.9448390151515  100 49.1231060606061  100 53.8181818181818  C 100 59.3892045454545  98.046875 64.1455965909091  94.140625 68.0873579545455  C 90.234375 72.0291193181818  85.5208333333333 74  80 74  L 23.3333333333333 74  C 16.9097222222222 74  11.4149305555556 71.696259469697  6.84895833333333 67.0887784090909  C 2.28298611111111 62.4812973484848  0 56.936553030303  0 50.4545454545455  C 0 45.8996212121212  1.21527777777778 41.6950757575758  3.64583333333333 37.8409090909091  C 6.07638888888889 33.9867424242424  9.34027777777778 31.0961174242424  13.4375 29.1690340909091  C 13.3680555555556 28.1178977272727  13.3333333333333 27.3645833333333  13.3333333333333 26.9090909090909  C 13.3333333333333 19.4810606060606  15.9375 13.1392045454545  21.1458333333333 7.88352272727273  C 26.3541666666667 2.62784090909091  32.6388888888889 0  40 0  C 45.4166666666667 0  50.3732638888889 1.52414772727273  54.8697916666667 4.57244318181818  C 59.3663194444445 7.62073863636364  62.6388888888889 11.6676136363636  64.6875 16.7130681818182  C 67.1527777777778 14.5407196969697  70.0347222222222 13.4545454545455  73.3333333333333 13.4545454545455  C 77.0138888888889 13.4545454545455  80.15625 14.7684659090909  82.7604166666667 17.3963068181818  C 85.3645833333333 20.0241477272727  86.6666666666667 23.1950757575758  86.6666666666667 26.9090909090909  C 86.6666666666667 29.5719696969697  85.9548611111111 31.9895833333333  84.53125 34.1619318181818  C 89.0451388888889 35.2481060606061  92.7517361111111 37.6219223484848  95.6510416666667 41.2833806818182  Z " fill-rule="nonzero" fill="#7b7b7b" stroke="none" transform="matrix(1 0 0 1 710 1509 )" />
  </g>
</svg>