<?xml version="1.0" encoding="utf-8"?>
<svg version="1.1" xmlns:xlink="http://www.w3.org/1999/xlink" width="588px" height="71px" xmlns="http://www.w3.org/2000/svg">
  <g transform="matrix(1 0 0 1 -43 -347 )">
    <path d="M 44 352  A 4 4 0 0 1 48 348 L 626 348  A 4 4 0 0 1 630 352 L 630 413  A 4 4 0 0 1 626 417 L 48 417  A 4 4 0 0 1 44 413 L 44 352  Z " fill-rule="nonzero" fill="#ffffff" stroke="none" />
    <path d="M 43.5 352  A 4.5 4.5 0 0 1 48 347.5 L 626 347.5  A 4.5 4.5 0 0 1 630.5 352 L 630.5 413  A 4.5 4.5 0 0 1 626 417.5 L 48 417.5  A 4.5 4.5 0 0 1 43.5 413 L 43.5 352  Z " stroke-width="1" stroke-dasharray="9,4" stroke="#797979" fill="none" stroke-dashoffset="0.5" />
  </g>
</svg>