<?xml version="1.0" encoding="utf-8"?>
<svg version="1.1" xmlns:xlink="http://www.w3.org/1999/xlink" width="63px" height="53px" xmlns="http://www.w3.org/2000/svg">
  <g transform="matrix(1 0 0 1 -72 -51 )">
    <path d="M 42.99609375 29.708984375  C 43.41796875 30.5141059027778  44.0859375 30.9166666666667  45 31  L 55.72265625 31  C 55.60546875 31.0546875  55.48828125 31.1754557291667  55.37109375 31.2789713541667  C 55.25390625 31.3824869791667  55.1484375 31.46875  55.0546875 31.5377604166667  L 54.94921875 31.67578125  L 33.046875 52.37890625  C 32.625 52.79296875  32.109375 53  31.5 53  C 30.890625 53  30.375 52.79296875  29.953125 52.37890625  L 8.015625 31.6067708333333  C 7.8984375 31.5607638888889  7.65234375 31.3307291666667  7.27734375 31  L 20.25 31  C 20.765625 30.9166666666667  21.228515625 30.7613932291667  21.638671875 30.4508463541667  C 22.048828125 30.1402994791667  22.3125 29.7434895833333  22.4296875 29.2604166666667  L 24.890625 19.564453125  L 31.5703125 42.5794270833333  C 31.7109375 43.0394965277778  31.98046875 43.4190538194444  32.37890625 43.7180989583333  C 32.77734375 44.0171440972222  33.234375 44.1666666666667  33.75 44.1666666666667  C 34.2421875 44.1666666666667  34.6875 44.0171440972222  35.0859375 43.7180989583333  C 35.484375 43.4190538194444  35.75390625 43.0394965277778  35.89453125 42.5794270833333  L 41.02734375 25.8444010416667  L 42.99609375 29.708984375  Z M 58.53515625 4.27864583333333  C 61.51171875 7.13107638888889  63 11.0876736111111  63 16.1484375  C 63 19.4839409722222  61.79296875 22.9344618055556  59.37890625 26  L 46.40625 26  L 42.50390625 18.8743489583333  C 42.31640625 18.4832899305556  42.017578125 18.1727430555556  41.607421875 17.9427083333333  C 41.197265625 17.7126736111111  40.76953125 17.6206597222222  40.32421875 17.6666666666667  C 39.26953125 17.7816840277778  38.61328125 18.3107638888889  38.35546875 19.25390625  L 33.8203125 34.0911458333333  L 26.9296875 10.4205729166667  C 26.7890625 9.96050347222222  26.513671875 9.58094618055555  26.103515625 9.28190104166667  C 25.693359375 8.98285590277778  25.23046875 8.83333333333333  24.71484375 8.83333333333333  C 24.19921875 8.83333333333333  23.7421875 8.98860677083333  23.34375 9.29915364583333  C 22.9453125 9.60970052083333  22.6875 10.0065104166667  22.5703125 10.4895833333333  L 18.4921875 26  L 3.62109375 26  C 1.20703125 22.9344618055556  0 19.4839409722222  0 16.1484375  C 0 11.0876736111111  1.48828125 7.13107638888889  4.46484375 4.27864583333333  C 7.44140625 1.42621527777778  11.5546875 0  16.8046875 0  C 18.2578125 0  19.740234375 0.247287326388886  21.251953125 0.741861979166669  C 22.763671875 1.23643663194444  24.169921875 1.90353732638889  25.470703125 2.7431640625  C 26.771484375 3.58279079861111  27.890625 4.37065972222222  28.828125 5.10677083333333  C 29.765625 5.84288194444444  30.65625 6.625  31.5 7.453125  C 32.34375 6.625  33.234375 5.84288194444444  34.171875 5.10677083333333  C 35.109375 4.37065972222222  36.228515625 3.58279079861111  37.529296875 2.7431640625  C 38.830078125 1.90353732638889  40.236328125 1.23643663194444  41.748046875 0.741861979166669  C 43.259765625 0.247287326388886  44.7421875 0  46.1953125 0  C 51.4453125 0  55.55859375 1.42621527777778  58.53515625 4.27864583333333  Z " fill-rule="nonzero" fill="#464646" stroke="none" transform="matrix(1 0 0 1 72 51 )" />
  </g>
</svg>