<?xml version="1.0" encoding="utf-8"?>
<svg version="1.1" xmlns:xlink="http://www.w3.org/1999/xlink" width="90px" height="60px" xmlns="http://www.w3.org/2000/svg">
  <g transform="matrix(1 0 0 1 -58 -46 )">
    <path d="M 46.875 34.7265625  L 69.296875 27.65625  L 70 40  C 70.1041666666667 41.796875  69.0364583333333 43.4635416666667  66.796875 45  C 64.5572916666667 46.5364583333333  61.4973958333333 47.75390625  57.6171875 48.65234375  C 53.7369791666667 49.55078125  49.53125 50  45 50  C 40.46875 50  36.2630208333333 49.55078125  32.3828125 48.65234375  C 28.5026041666667 47.75390625  25.4427083333333 46.5364583333333  23.203125 45  C 20.9635416666667 43.4635416666667  19.8958333333333 41.796875  20 40  L 20.703125 27.65625  L 43.125 34.7265625  C 43.6979166666667 34.9088541666667  44.3229166666667 35  45 35  C 45.6770833333333 35  46.3020833333333 34.9088541666667  46.875 34.7265625  Z M 89.140625 13.7890625  C 89.7135416666667 13.9973958333333  90 14.4010416666667  90 15  C 90 15.5989583333333  89.7135416666667 16.0026041666667  89.140625 16.2109375  L 45.390625 29.9609375  C 45.2864583333333 29.9869791666667  45.15625 30  45 30  C 44.84375 30  44.7135416666667 29.9869791666667  44.609375 29.9609375  L 19.140625 21.9140625  C 18.0208333333333 22.7994791666667  17.0963541666667 24.2513020833333  16.3671875 26.26953125  C 15.6380208333333 28.2877604166667  15.1953125 30.6119791666667  15.0390625 33.2421875  C 16.6796875 34.1796875  17.5 35.5989583333333  17.5 37.5  C 17.5 39.296875  16.7447916666667 40.6901041666667  15.234375 41.6796875  L 17.5 58.59375  C 17.5520833333333 58.9583333333333  17.4479166666667 59.2838541666667  17.1875 59.5703125  C 16.953125 59.8567708333333  16.640625 60  16.25 60  L 8.75 60  C 8.359375 60  8.046875 59.8567708333333  7.8125 59.5703125  C 7.55208333333333 59.2838541666667  7.44791666666667 58.9583333333333  7.5 58.59375  L 9.765625 41.6796875  C 8.25520833333333 40.6901041666667  7.5 39.296875  7.5 37.5  C 7.5 35.5989583333333  8.34635416666667 34.1536458333333  10.0390625 33.1640625  C 10.3255208333333 27.7734375  11.6015625 23.4765625  13.8671875 20.2734375  L 0.859375 16.2109375  C 0.286458333333333 16.0026041666667  0 15.5989583333333  0 15  C 0 14.4010416666667  0.286458333333333 13.9973958333333  0.859375 13.7890625  L 44.609375 0.0390624999999978  C 44.7135416666667 0.0130208333333304  44.84375 0  45 0  C 45.15625 0  45.2864583333333 0.0130208333333304  45.390625 0.0390624999999978  L 89.140625 13.7890625  Z " fill-rule="nonzero" fill="#545454" stroke="none" transform="matrix(1 0 0 1 58 46 )" />
  </g>
</svg>