<?xml version="1.0" encoding="utf-8"?>
<svg version="1.1" xmlns:xlink="http://www.w3.org/1999/xlink" width="55px" height="60px" xmlns="http://www.w3.org/2000/svg">
  <g transform="matrix(1 0 0 1 -76 -42 )">
    <path d="M 53.9973958333333 1.00961538461539  C 54.6657986111111 1.6826923076923  55 2.5  55 3.46153846153846  L 55 43.8461538461539  C 55 45.0480769230769  54.5941840277778 46.1177884615385  53.7825520833333 47.0552884615385  C 52.9709201388889 47.9927884615385  51.9444444444445 48.7199519230769  50.703125 49.2367788461539  C 49.4618055555556 49.7536057692308  48.2264539930556 50.1382211538461  46.9970703125 50.390625  C 45.7676866319445 50.6430288461539  44.6158854166667 50.7692307692308  43.5416666666667 50.7692307692308  C 42.4674479166667 50.7692307692308  41.3156467013889 50.6430288461539  40.0862630208333 50.390625  C 38.8568793402778 50.1382211538461  37.6215277777778 49.7536057692308  36.3802083333333 49.2367788461539  C 35.1388888888889 48.7199519230769  34.1124131944445 47.9927884615385  33.30078125 47.0552884615385  C 32.4891493055556 46.1177884615385  32.0833333333333 45.0480769230769  32.0833333333333 43.8461538461539  C 32.0833333333333 42.6442307692308  32.4891493055556 41.5745192307692  33.30078125 40.6370192307692  C 34.1124131944445 39.6995192307692  35.1388888888889 38.9723557692308  36.3802083333333 38.4555288461539  C 37.6215277777778 37.9387019230769  38.8568793402778 37.5540865384615  40.0862630208333 37.3016826923077  C 41.3156467013889 37.0492788461539  42.4674479166667 36.9230769230769  43.5416666666667 36.9230769230769  C 46.0481770833333 36.9230769230769  48.33984375 37.3918269230769  50 38.3293269230769  L 50 18.9663461538462  L 23 27.5120192307692  L 23 53.0769230769231  C 22.9166666666667 54.2788461538462  22.5108506944444 55.3485576923077  21.69921875 56.2860576923077  C 20.8875868055556 57.2235576923077  19.8611111111111 57.9507211538462  18.6197916666667 58.4675480769231  C 17.3784722222222 58.984375  16.1431206597222 59.3689903846154  14.9137369791667 59.6213942307692  C 13.6843532986111 59.8737980769231  12.5325520833333 60  11.4583333333333 60  C 10.3841145833333 60  9.23231336805556 59.8737980769231  8.0029296875 59.6213942307692  C 6.77354600694445 59.3689903846154  5.53819444444445 58.984375  4.296875 58.4675480769231  C 3.05555555555556 57.9507211538462  2.02907986111111 57.2235576923077  1.21744791666667 56.2860576923077  C 0.405815972222222 55.3485576923077  0 54.2788461538462  0 53.0769230769231  C 0 51.875  0.405815972222222 50.8052884615385  1.21744791666667 49.8677884615385  C 2.02907986111111 48.9302884615385  3.05555555555556 48.203125  4.296875 47.6862980769231  C 5.53819444444445 47.1694711538462  6.77354600694445 46.7848557692308  8.0029296875 46.5324519230769  C 9.23231336805556 46.2800480769231  10.3841145833333 46.1538461538461  11.4583333333333 46.1538461538461  C 13.96484375 46.1538461538461  16.2565104166667 46.6225961538461  19 47.5600961538461  L 19 12.6923076923077  C 18.3333333333333 11.9471153846154  18.5601128472222 11.2680288461538  19.013671875 10.6550480769231  C 19.4672309027778 10.0420673076923  20.0520833333333 9.61538461538461  20.7682291666667 9.375  L 50.5598958333333 0.144230769230769  C 50.8463541666667 0.0480769230769229  51.1805555555556 0  51.5625 0  C 52.5173611111111 0  53.3289930555556 0.33653846153846  53.9973958333333 1.00961538461539  Z " fill-rule="nonzero" fill="#494949" stroke="none" transform="matrix(1 0 0 1 76 42 )" />
  </g>
</svg>