<?xml version="1.0" encoding="utf-8"?>
<svg version="1.1" xmlns:xlink="http://www.w3.org/1999/xlink" width="21px" height="16px" xmlns="http://www.w3.org/2000/svg">
  <g transform="matrix(1 0 0 1 -965 -214 )">
    <path d="M 1.5 13  L 1.5 14.5454545454545  L 13.5 14.5454545454545  L 13.5 13  L 1.5 13  Z M 1.5 7.27272727272727  L 1.5 8.72727272727273  L 13.5 8.72727272727273  L 13.5 7.27272727272727  L 1.5 7.27272727272727  Z M 19.546875 14.5909090909091  C 19.765625 14.3787878787879  19.875 14.1212121212121  19.875 13.8181818181818  C 19.875 13.5151515151515  19.765625 13.2575757575758  19.546875 13.0454545454545  C 19.328125 12.8333333333333  19.0625 12.7272727272727  18.75 12.7272727272727  C 18.4375 12.7272727272727  18.171875 12.8333333333333  17.953125 13.0454545454545  C 17.734375 13.2575757575758  17.625 13.5151515151515  17.625 13.8181818181818  C 17.625 14.1212121212121  17.734375 14.3787878787879  17.953125 14.5909090909091  C 18.171875 14.8030303030303  18.4375 14.9090909090909  18.75 14.9090909090909  C 19.0625 14.9090909090909  19.328125 14.8030303030303  19.546875 14.5909090909091  Z M 1.5 1.45454545454546  L 1.5 3  L 13.5 3  L 13.5 1.45454545454546  L 1.5 1.45454545454546  Z M 19.546875 8.77272727272727  C 19.765625 8.56060606060606  19.875 8.3030303030303  19.875 8  C 19.875 7.6969696969697  19.765625 7.43939393939394  19.546875 7.22727272727273  C 19.328125 7.01515151515151  19.0625 6.90909090909091  18.75 6.90909090909091  C 18.4375 6.90909090909091  18.171875 7.01515151515151  17.953125 7.22727272727273  C 17.734375 7.43939393939394  17.625 7.6969696969697  17.625 8  C 17.625 8.3030303030303  17.734375 8.56060606060606  17.953125 8.77272727272727  C 18.171875 8.98484848484848  18.4375 9.09090909090909  18.75 9.09090909090909  C 19.0625 9.09090909090909  19.328125 8.98484848484848  19.546875 8.77272727272727  Z M 19.546875 2.95454545454546  C 19.765625 2.74242424242424  19.875 2.48484848484848  19.875 2.18181818181818  C 19.875 1.87878787878788  19.765625 1.62121212121212  19.546875 1.40909090909091  C 19.328125 1.1969696969697  19.0625 1.09090909090909  18.75 1.09090909090909  C 18.4375 1.09090909090909  18.171875 1.1969696969697  17.953125 1.40909090909091  C 17.734375 1.62121212121212  17.625 1.87878787878788  17.625 2.18181818181818  C 17.625 2.48484848484848  17.734375 2.74242424242424  17.953125 2.95454545454546  C 18.171875 3.16666666666666  18.4375 3.27272727272727  18.75 3.27272727272727  C 19.0625 3.27272727272727  19.328125 3.16666666666666  19.546875 2.95454545454546  Z M 0 11.6363636363636  L 21 11.6363636363636  L 21 16  L 0 16  L 0 11.6363636363636  Z M 0 6  L 21 6  L 21 10  L 0 10  L 0 6  Z M 0 0  L 21 0  L 21 4.36363636363636  L 0 4.36363636363636  L 0 0  Z " fill-rule="nonzero" fill="#8a8a8a" stroke="none" transform="matrix(1 0 0 1 965 214 )" />
  </g>
</svg>