<?xml version="1.0" encoding="utf-8"?>
<svg version="1.1" xmlns:xlink="http://www.w3.org/1999/xlink" width="18px" height="21px" xmlns="http://www.w3.org/2000/svg">
  <g transform="matrix(1 0 0 1 -1288 -85 )">
    <path d="M 13.546875 0.796875000000001  L 17.203125 4.453125  C 17.421875 4.671875  17.609375 4.96875  17.765625 5.34375  C 17.921875 5.71875  18 6.0625  18 6.375  L 18 19.875  C 18 20.1875  17.890625 20.453125  17.671875 20.671875  C 17.453125 20.890625  17.1875 21  16.875 21  L 1.125 21  C 0.8125 21  0.546875 20.890625  0.328125 20.671875  C 0.109375 20.453125  0 20.1875  0 19.875  L 0 1.125  C 0 0.812499999999999  0.109375 0.546874999999999  0.328125 0.328125  C 0.546875 0.109375000000001  0.8125 0  1.125 0  L 11.625 0  C 11.9375 0  12.28125 0.0781250000000009  12.65625 0.234375  C 13.03125 0.390625  13.328125 0.578124999999999  13.546875 0.796875000000001  Z M 12.48046875 1.8515625  C 12.38671875 1.7578125  12.2265625 1.671875  12 1.59375  L 12 6  L 16.40625 6  C 16.328125 5.7734375  16.2421875 5.61328125  16.1484375 5.51953125  L 12.48046875 1.8515625  Z M 1.5 19.5  L 16.5 19.5  L 16.5 7.5  L 11.625 7.5  C 11.3125 7.5  11.046875 7.390625  10.828125 7.171875  C 10.609375 6.953125  10.5 6.6875  10.5 6.375  L 10.5 1.5  L 1.5 1.5  L 1.5 19.5  Z M 5.82421875 16.7578125  L 5.02734375 16.7578125  L 5.02734375 18  L 8.3203125 18  L 8.3203125 16.7578125  L 7.44140625 16.7578125  L 8.6484375 14.87109375  C 8.6875 14.81640625  8.7265625 14.751953125  8.765625 14.677734375  C 8.8046875 14.603515625  8.833984375 14.55078125  8.853515625 14.51953125  C 8.873046875 14.48828125  8.88671875 14.47265625  8.89453125 14.47265625  L 8.91796875 14.47265625  C 8.92578125 14.50390625  8.9453125 14.54296875  8.9765625 14.58984375  C 8.9921875 14.62109375  9.009765625 14.650390625  9.029296875 14.677734375  C 9.048828125 14.705078125  9.072265625 14.736328125  9.099609375 14.771484375  C 9.126953125 14.806640625  9.15234375 14.83984375  9.17578125 14.87109375  L 10.4296875 16.7578125  L 9.5390625 16.7578125  L 9.5390625 18  L 12.94921875 18  L 12.94921875 16.7578125  L 12.15234375 16.7578125  L 9.90234375 13.55859375  L 12.1875 10.25390625  L 12.97265625 10.25390625  L 12.97265625 9  L 9.703125 9  L 9.703125 10.25390625  L 10.5703125 10.25390625  L 9.36328125 12.1171875  C 9.33203125 12.171875  9.29296875 12.236328125  9.24609375 12.310546875  C 9.19921875 12.384765625  9.1640625 12.4375  9.140625 12.46875  L 9.1171875 12.50390625  L 9.09375 12.50390625  C 9.0859375 12.47265625  9.06640625 12.43359375  9.03515625 12.38671875  C 8.98828125 12.30078125  8.921875 12.2109375  8.8359375 12.1171875  L 7.59375 10.25390625  L 8.484375 10.25390625  L 8.484375 9  L 5.0859375 9  L 5.0859375 10.25390625  L 5.8828125 10.25390625  L 8.09765625 13.44140625  L 5.82421875 16.7578125  Z " fill-rule="nonzero" fill="#ffffff" stroke="none" transform="matrix(1 0 0 1 1288 85 )" />
  </g>
</svg>