<?xml version="1.0" encoding="utf-8"?>
<svg version="1.1" xmlns:xlink="http://www.w3.org/1999/xlink" width="35px" height="30px" xmlns="http://www.w3.org/2000/svg">
  <g transform="matrix(1 0 0 1 -27 -111 )">
    <path d="M 10.2941176470588 21.5959821428571  L 10.2941176470588 27.3214285714286  L 16.4705882352941 24.1071428571429  L 16.4705882352941 18.8504464285714  L 10.2941176470588 21.5959821428571  Z M 2.76654411764706 16.8247767857143  L 9.26470588235294 19.7209821428571  L 15.7628676470588 16.8247767857143  L 9.26470588235294 13.9285714285714  L 2.76654411764706 16.8247767857143  Z M 26.7647058823529 21.5959821428571  L 26.7647058823529 27.3214285714286  L 32.9411764705882 24.1071428571429  L 32.9411764705882 18.8504464285714  L 26.7647058823529 21.5959821428571  Z M 19.2371323529412 16.8247767857143  L 25.7352941176471 19.7209821428571  L 32.2334558823529 16.8247767857143  L 25.7352941176471 13.9285714285714  L 19.2371323529412 16.8247767857143  Z M 18.5294117647059 10.3459821428571  L 18.5294117647059 14.8158482142857  L 24.7058823529412 12.0535714285714  L 24.7058823529412 7.60044642857143  L 18.5294117647059 10.3459821428571  Z M 10.4067095588235 5.30691964285714  L 17.5 8.47098214285714  L 24.5932904411765 5.30691964285714  L 17.5 2.14285714285714  L 10.4067095588235 5.30691964285714  Z M 34.6622242647059 15.9709821428571  C 34.8874080882353 16.328125  35 16.71875  35 17.1428571428571  L 35 24.1071428571429  C 35 24.5089285714286  34.898131127451 24.8828125  34.6943933823529 25.2287946428571  C 34.4906556372549 25.5747767857143  34.2118566176471 25.8370535714286  33.8579963235294 26.015625  L 26.6521139705882 29.765625  C 26.3840379901961 29.921875  26.078431372549 30  25.7352941176471 30  C 25.3921568627451 30  25.086550245098 29.921875  24.8184742647059 29.765625  L 17.6125919117647 26.015625  C 17.569699754902 25.9933035714286  17.5321691176471 25.9709821428571  17.5 25.9486607142857  C 17.4785539215686 25.9709821428571  17.4410232843137 25.9933035714286  17.3874080882353 26.015625  L 10.1815257352941 29.765625  C 9.91344975490196 29.921875  9.6078431372549 30  9.26470588235294 30  C 8.92156862745098 30  8.61596200980392 29.921875  8.34788602941176 29.765625  L 1.14200367647059 26.015625  C 0.788143382352941 25.8370535714286  0.509344362745098 25.5747767857143  0.305606617647059 25.2287946428571  C 0.10186887254902 24.8828125  0 24.5089285714286  0 24.1071428571429  L 0 17.1428571428571  C 0 16.71875  0.115272671568627 16.328125  0.345818014705882 15.9709821428571  C 0.576363357843137 15.6138392857143  0.879289215686274 15.3459821428571  1.25459558823529 15.1674107142857  L 8.23529411764706 12.0535714285714  L 8.23529411764706 5.35714285714286  C 8.23529411764706 4.93303571428571  8.35056678921569 4.54241071428571  8.58111213235294 4.18526785714286  C 8.8116574754902 3.828125  9.11458333333333 3.56026785714285  9.48988970588235 3.38169642857143  L 16.6957720588235 0.167410714285713  C 16.9424019607843 0.0558035714285754  17.2104779411765 0  17.5 0  C 17.7895220588235 0  18.0575980392157 0.0558035714285754  18.3042279411765 0.167410714285713  L 25.5101102941176 3.38169642857143  C 25.8854166666667 3.56026785714285  26.1883425245098 3.828125  26.4188878676471 4.18526785714286  C 26.6494332107843 4.54241071428571  26.7647058823529 4.93303571428571  26.7647058823529 5.35714285714286  L 26.7647058823529 12.0535714285714  L 33.7454044117647 15.1674107142857  C 34.1314338235294 15.3459821428571  34.4370404411765 15.6138392857143  34.6622242647059 15.9709821428571  Z " fill-rule="nonzero" fill="#ffffff" stroke="none" transform="matrix(1 0 0 1 27 111 )" />
  </g>
</svg>