<?xml version="1.0" encoding="utf-8"?>
<svg version="1.1" xmlns:xlink="http://www.w3.org/1999/xlink" width="35px" height="27px" xmlns="http://www.w3.org/2000/svg">
  <g transform="matrix(1 0 0 1 -27 -345 )">
    <path d="M 11.1311475409836 21.674672489083  C 11.1311475409836 21.8449781659389  11.0673952641166 21.9956331877729  10.9398907103825 22.1266375545852  L 9.98360655737705 23.1091703056769  C 9.85610200364299 23.2401746724891  9.70947176684882 23.3056768558952  9.54371584699454 23.3056768558952  C 9.37795992714026 23.3056768558952  9.23132969034608 23.2401746724891  9.10382513661202 23.1091703056769  L 0.191256830601093 13.9519650655022  C 0.063752276867031 13.82096069869  0 13.6703056768559  0 13.5  C 0 13.3296943231441  0.063752276867031 13.17903930131  0.191256830601093 13.0480349344978  L 9.10382513661202 3.89082969432314  C 9.23132969034608 3.75982532751091  9.37795992714026 3.6943231441048  9.54371584699454 3.6943231441048  C 9.70947176684882 3.6943231441048  9.85610200364299 3.75982532751091  9.98360655737705 3.89082969432314  L 10.9398907103825 4.87336244541485  C 11.0673952641166 5.00436681222707  11.1311475409836 5.15502183406113  11.1311475409836 5.32532751091703  C 11.1311475409836 5.49563318777292  11.0673952641166 5.64628820960699  10.9398907103825 5.77729257641922  L 3.42349726775956 13.5  L 10.9398907103825 21.2227074235808  C 11.0673952641166 21.353711790393  11.1311475409836 21.5043668122271  11.1311475409836 21.674672489083  Z M 22.1953551912568 0.677947598253274  C 22.278233151184 0.828602620087333  22.2941712204007 0.989082969432313  22.2431693989071 1.15938864628821  L 15.1092896174863 26.528384279476  C 15.0582877959927 26.6986899563319  14.9594717668488 26.8264192139738  14.8128415300546 26.9115720524017  C 14.6662112932605 26.9967248908297  14.516393442623 27.0131004366812  14.3633879781421 26.9606986899563  L 13.1775956284153 26.6266375545852  C 13.011839708561 26.5742358078603  12.8875227686703 26.4727074235808  12.8046448087432 26.3220524017467  C 12.721766848816 26.1713973799127  12.7058287795993 26.0109170305677  12.7568306010929 25.8406113537118  L 19.8907103825137 0.471615720524019  C 19.9417122040073 0.30131004366812  20.0405282331512 0.173580786026199  20.1871584699454 0.0884279475982542  C 20.3337887067395 0.00327510917030327  20.4836065573771 -0.0131004366812251  20.6366120218579 0.0393013100436692  L 21.8224043715847 0.373362445414849  C 21.988160291439 0.425764192139734  22.1124772313297 0.527292576419213  22.1953551912568 0.677947598253274  Z M 35 13.5  C 35 13.6703056768559  34.936247723133 13.82096069869  34.8087431693989 13.9519650655022  L 25.896174863388 23.1091703056769  C 25.7686703096539 23.2401746724891  25.6220400728597 23.3056768558952  25.4562841530055 23.3056768558952  C 25.2905282331512 23.3056768558952  25.143897996357 23.2401746724891  25.0163934426229 23.1091703056769  L 24.0601092896175 22.1266375545852  C 23.9326047358834 21.9956331877729  23.8688524590164 21.8449781659389  23.8688524590164 21.674672489083  C 23.8688524590164 21.5043668122271  23.9326047358834 21.353711790393  24.0601092896175 21.2227074235808  L 31.5765027322404 13.5  L 24.0601092896175 5.77729257641922  C 23.9326047358834 5.64628820960699  23.8688524590164 5.49563318777292  23.8688524590164 5.32532751091703  C 23.8688524590164 5.15502183406113  23.9326047358834 5.00436681222707  24.0601092896175 4.87336244541485  L 25.0163934426229 3.89082969432314  C 25.143897996357 3.75982532751091  25.2905282331512 3.6943231441048  25.4562841530055 3.6943231441048  C 25.6220400728597 3.6943231441048  25.7686703096539 3.75982532751091  25.896174863388 3.89082969432314  L 34.8087431693989 13.0480349344978  C 34.936247723133 13.17903930131  35 13.3296943231441  35 13.5  Z " fill-rule="nonzero" fill="#ffffff" stroke="none" transform="matrix(1 0 0 1 27 345 )" />
  </g>
</svg>