<?xml version="1.0" encoding="utf-8"?>
<svg version="1.1" xmlns:xlink="http://www.w3.org/1999/xlink" width="35px" height="28px" xmlns="http://www.w3.org/2000/svg">
  <g transform="matrix(1 0 0 1 -27 -286 )">
    <path d="M 7.56582411795682 7.58679867986799  C 8.02659294365455 7.12475247524752  8.25697735650342 6.56721672167216  8.25697735650342 5.91419141914191  C 8.25697735650342 5.26116611661166  8.02659294365455 4.7036303630363  7.56582411795682 4.24158415841584  C 7.10505529225908 3.77953795379538  6.54906090925048 3.54851485148515  5.89784096893102 3.54851485148515  C 5.24662102861155 3.54851485148515  4.69062664560295 3.77953795379538  4.22985781990521 4.24158415841584  C 3.76908899420748 4.7036303630363  3.53870458135861 5.26116611661166  3.53870458135861 5.91419141914191  C 3.53870458135861 6.56721672167216  3.76908899420748 7.12475247524752  4.22985781990521 7.58679867986799  C 4.69062664560295 8.04884488448845  5.24662102861155 8.27986798679868  5.89784096893102 8.27986798679868  C 6.54906090925048 8.27986798679868  7.10505529225908 8.04884488448845  7.56582411795682 7.58679867986799  Z M 27.2406529752501 14.8778877887789  C 27.6952782166052 15.3584158415842  27.9225908372828 15.9190319031903  27.9225908372828 16.5597359735974  C 27.9225908372828 17.2127612761276  27.6952782166052 17.7672167216722  27.2406529752501 18.223102310231  L 18.1911532385466 27.3161716171617  C 17.711953659821 27.7720572057206  17.152887484641 28  16.5139547130068 28  C 15.8627347726874 28  15.3098121818501 27.7720572057206  14.855186940495 27.3161716171617  L 1.67719852553976 14.0831683168317  C 1.21028611549939 13.6272827282728  0.814024925399333 13.0050605060506  0.4884149552396 12.216501650165  C 0.162804985079867 11.4279427942794  0 10.7071507150715  0 10.0541254125413  L 0 2.36567656765677  C 0 1.72497249724973  0.233456205020186 1.17051705170517  0.700368615060558 0.702310231023101  C 1.16728102510093 0.234103410341032  1.72020361593821 0  2.35913638757241 0  L 10.0263296471827 0  C 10.6775495875022 0  11.3963489555907 0.163256325632561  12.1827277514481 0.489768976897689  C 12.9691065473056 0.816281628162814  13.5957521502545 1.21364136413641  14.0626645602949 1.68184818481848  L 27.2406529752501 14.8778877887789  Z M 34.3180621379674 14.8778877887789  C 34.7726873793225 15.3584158415842  35 15.9190319031903  35 16.5597359735974  C 35 17.2127612761276  34.7726873793225 17.7672167216722  34.3180621379674 18.223102310231  L 25.2685624012638 27.3161716171617  C 24.7893628225382 27.7720572057206  24.2302966473583 28  23.5913638757241 28  C 23.1490258030542 28  22.7865543268387 27.9137513751375  22.5039494470774 27.7412541254125  C 22.2213445673161 27.5687568756876  21.8957345971564 27.2915291529153  21.5271195365982 26.9095709570957  L 30.1895734597156 18.223102310231  C 30.6441987010707 17.7672167216722  30.8715113217483 17.2127612761276  30.8715113217483 16.5597359735974  C 30.8715113217483 15.9190319031903  30.6441987010707 15.3584158415842  30.1895734597156 14.8778877887789  L 17.0115850447604 1.68184818481848  C 16.54467263472 1.21364136413641  15.9180270317711 0.816281628162814  15.1316482359136 0.489768976897689  C 14.3452694400562 0.163256325632561  13.6264700719677 0  12.9752501316482 0  L 17.1037388098999 0  C 17.7549587502194 0  18.4737581183079 0.163256325632561  19.2601369141654 0.489768976897689  C 20.0465157100228 0.816281628162814  20.6731613129717 1.21364136413641  21.1400737230121 1.68184818481848  L 34.3180621379674 14.8778877887789  Z " fill-rule="nonzero" fill="#ffffff" stroke="none" transform="matrix(1 0 0 1 27 286 )" />
  </g>
</svg>