<?xml version="1.0" encoding="utf-8"?>
<svg version="1.1" xmlns:xlink="http://www.w3.org/1999/xlink" width="35px" height="23px" xmlns="http://www.w3.org/2000/svg">
  <g transform="matrix(1 0 0 1 -27 -231 )">
    <path d="M 14 14.375  L 14 16.1  L 21 16.1  L 21 14.375  L 18.6666666666667 14.375  L 18.6666666666667 6.325  L 16.5885416666667 6.325  L 13.890625 8.78671875  L 15.2942708333333 10.22421875  C 15.8046875 9.78098958333333  16.1388888888889 9.43958333333333  16.296875 9.2  L 16.3333333333333 9.2  L 16.3333333333333 14.375  L 14 14.375  Z M 22.9505208333333 8.9484375  C 23.2057291666667 9.8109375  23.3333333333333 10.6614583333333  23.3333333333333 11.5  C 23.3333333333333 12.3385416666667  23.2057291666667 13.1890625  22.9505208333333 14.0515625  C 22.6953125 14.9140625  22.3337673611111 15.7166666666667  21.8658854166667 16.459375  C 21.3980034722222 17.2020833333333  20.78125 17.80703125  20.015625 18.27421875  C 19.25 18.74140625  18.4114583333333 18.975  17.5 18.975  C 16.5885416666667 18.975  15.75 18.74140625  14.984375 18.27421875  C 14.21875 17.80703125  13.6019965277778 17.2020833333333  13.1341145833333 16.459375  C 12.6662326388889 15.7166666666667  12.3046875 14.9140625  12.0494791666667 14.0515625  C 11.7942708333333 13.1890625  11.6666666666667 12.3385416666667  11.6666666666667 11.5  C 11.6666666666667 10.6614583333333  11.7942708333333 9.8109375  12.0494791666667 8.9484375  C 12.3046875 8.0859375  12.6662326388889 7.28333333333333  13.1341145833333 6.540625  C 13.6019965277778 5.79791666666666  14.21875 5.19296875  14.984375 4.72578125  C 15.75 4.25859375  16.5885416666667 4.025  17.5 4.025  C 18.4114583333333 4.025  19.25 4.25859375  20.015625 4.72578125  C 20.78125 5.19296875  21.3980034722222 5.79791666666666  21.8658854166667 6.540625  C 22.3337673611111 7.28333333333333  22.6953125 8.0859375  22.9505208333333 8.9484375  Z M 29.3671875 17.44765625  C 30.2786458333333 16.54921875  31.3784722222222 16.1  32.6666666666667 16.1  L 32.6666666666667 6.9  C 31.3784722222222 6.9  30.2786458333333 6.45078125  29.3671875 5.55234375  C 28.4557291666667 4.65390625  28 3.56979166666666  28 2.3  L 7 2.3  C 7 3.56979166666666  6.54427083333333 4.65390625  5.6328125 5.55234375  C 4.72135416666667 6.45078125  3.62152777777778 6.9  2.33333333333333 6.9  L 2.33333333333333 16.1  C 3.62152777777778 16.1  4.72135416666667 16.54921875  5.6328125 17.44765625  C 6.54427083333333 18.34609375  7 19.4302083333333  7 20.7  L 28 20.7  C 28 19.4302083333333  28.4557291666667 18.34609375  29.3671875 17.44765625  Z M 34.6536458333333 0.341406250000001  C 34.8845486111111 0.569010416666665  35 0.838541666666665  35 1.15  L 35 21.85  C 35 22.1614583333333  34.8845486111111 22.4309895833333  34.6536458333333 22.65859375  C 34.4227430555556 22.8861979166667  34.1493055555556 23  33.8333333333333 23  L 1.16666666666667 23  C 0.850694444444445 23  0.577256944444444 22.8861979166667  0.346354166666667 22.65859375  C 0.115451388888889 22.4309895833333  0 22.1614583333333  0 21.85  L 0 1.15  C 0 0.838541666666665  0.115451388888889 0.569010416666665  0.346354166666667 0.341406250000001  C 0.577256944444444 0.113802083333332  0.850694444444445 0  1.16666666666667 0  L 33.8333333333333 0  C 34.1493055555556 0  34.4227430555556 0.113802083333332  34.6536458333333 0.341406250000001  Z " fill-rule="nonzero" fill="#ffffff" stroke="none" transform="matrix(1 0 0 1 27 231 )" />
  </g>
</svg>