<?xml version="1.0" encoding="utf-8"?>
<svg version="1.1" xmlns:xlink="http://www.w3.org/1999/xlink" width="23px" height="25px" xmlns="http://www.w3.org/2000/svg">
  <g transform="matrix(1 0 0 1 -1386 -18 )">
    <path d="M 11.5 23.8839285714286  C 11.6474358974359 23.8839285714286  11.7211538461538 23.8095238095238  11.7211538461538 23.6607142857143  C 11.7211538461538 23.5119047619048  11.6474358974359 23.4375  11.5 23.4375  C 10.9563301282051 23.4375  10.4886818910256 23.2398623511905  10.0970552884615 22.8445870535714  C 9.70542868589744 22.4493117559524  9.50961538461538 21.977306547619  9.50961538461538 21.4285714285714  C 9.50961538461538 21.2797619047619  9.43589743589744 21.2053571428571  9.28846153846154 21.2053571428571  C 9.14102564102564 21.2053571428571  9.06730769230769 21.2797619047619  9.06730769230769 21.4285714285714  C 9.06730769230769 22.1075148809524  9.30458733974359 22.6864769345238  9.77914663461538 23.1654575892857  C 10.2537059294872 23.6444382440476  10.8273237179487 23.8839285714286  11.5 23.8839285714286  Z M 6.19230769230769 8.03571428571428  C 6.19230769230769 12.983630952381  4.96674679487179 16.8526785714286  2.515625 19.6428571428571  L 20.484375 19.6428571428571  C 18.0332532051282 16.8526785714286  16.8076923076923 12.983630952381  16.8076923076923 8.03571428571428  C 16.8076923076923 7.56138392857143  16.6971153846154 7.07310267857143  16.4759615384615 6.57087053571428  C 16.2548076923077 6.06863839285714  15.9368990384615 5.58965773809524  15.5222355769231 5.13392857142857  C 15.1075721153846 4.6781994047619  14.5477764423077 4.30385044642857  13.8428485576923 4.01088169642857  C 13.1379206730769 3.71791294642857  12.3569711538462 3.57142857142857  11.5 3.57142857142857  C 10.6430288461538 3.57142857142857  9.86207932692308 3.71791294642857  9.15715144230769 4.01088169642857  C 8.45222355769231 4.30385044642857  7.89242788461538 4.6781994047619  7.47776442307692 5.13392857142857  C 7.06310096153846 5.58965773809524  6.74519230769231 6.06863839285714  6.52403846153846 6.57087053571428  C 6.30288461538462 7.07310267857143  6.19230769230769 7.56138392857143  6.19230769230769 8.03571428571428  Z M 21.7421875 18.4151785714286  C 22.1199919871795 18.843005952381  22.5392628205128 19.2522321428571  23 19.6428571428571  C 23 20.1264880952381  22.8249198717949 20.5450148809524  22.4747596153846 20.8984375  C 22.1245993589744 21.2518601190476  21.7099358974359 21.4285714285714  21.2307692307692 21.4285714285714  L 15.0384615384615 21.4285714285714  C 15.0384615384615 22.4144345238095  14.6929086538462 23.2561383928571  14.0018028846154 23.9536830357143  C 13.3106971153846 24.6512276785714  12.4767628205128 25  11.5 25  C 10.5232371794872 25  9.68930288461538 24.6512276785714  8.99819711538462 23.9536830357143  C 8.30709134615385 23.2561383928571  7.96153846153846 22.4144345238095  7.96153846153846 21.4285714285714  L 1.76923076923077 21.4285714285714  C 1.2900641025641 21.4285714285714  0.875400641025641 21.2518601190476  0.525240384615385 20.8984375  C 0.175080128205128 20.5450148809524  0 20.1264880952381  0 19.6428571428571  C 0.46073717948718 19.2522321428571  0.880008012820513 18.843005952381  1.2578125 18.4151785714286  C 1.63561698717949 17.9873511904762  2.02724358974359 17.431640625  2.43269230769231 16.748046875  C 2.83814102564103 16.064453125  3.18139022435897 15.327380952381  3.46243990384615 14.5368303571429  C 3.74348958333333 13.7462797619048  3.97385817307692 12.788318452381  4.15354567307692 11.6629464285714  C 4.33323317307692 10.5375744047619  4.42307692307692 9.32849702380952  4.42307692307692 8.03571428571428  C 4.42307692307692 6.62202380952381  4.96213942307692 5.30831473214286  6.04026442307692 4.09458705357143  C 7.11838942307692 2.880859375  8.53285256410256 2.14378720238095  10.2836538461538 1.88337053571428  C 10.2099358974359 1.70665922619047  10.1730769230769 1.52529761904762  10.1730769230769 1.33928571428572  C 10.1730769230769 0.967261904761904  10.3020833333333 0.651041666666666  10.5600961538462 0.390625  C 10.818108974359 0.130208333333334  11.1314102564103 0  11.5 0  C 11.8685897435897 0  12.181891025641 0.130208333333334  12.4399038461538 0.390625  C 12.6979166666667 0.651041666666666  12.8269230769231 0.967261904761904  12.8269230769231 1.33928571428572  C 12.8269230769231 1.52529761904762  12.7900641025641 1.70665922619047  12.7163461538462 1.88337053571428  C 14.4671474358974 2.14378720238095  15.8816105769231 2.880859375  16.9597355769231 4.09458705357143  C 18.0378605769231 5.30831473214286  18.5769230769231 6.62202380952381  18.5769230769231 8.03571428571428  C 18.5769230769231 9.32849702380952  18.6667668269231 10.5375744047619  18.8464543269231 11.6629464285714  C 19.0261418269231 12.788318452381  19.2565104166667 13.7462797619048  19.5375600961538 14.5368303571429  C 19.818609775641 15.327380952381  20.161858974359 16.064453125  20.5673076923077 16.748046875  C 20.9727564102564 17.431640625  21.3643830128205 17.9873511904762  21.7421875 18.4151785714286  Z " fill-rule="nonzero" fill="#898989" stroke="none" transform="matrix(1 0 0 1 1386 18 )" />
  </g>
</svg>