<?xml version="1.0" encoding="utf-8"?>
<svg version="1.1" xmlns:xlink="http://www.w3.org/1999/xlink" width="20px" height="18px" xmlns="http://www.w3.org/2000/svg">
  <g transform="matrix(1 0 0 1 -18 -71 )">
    <path d="M 13.6495535714286 10.08984375  C 13.7834821428571 10.36328125  13.9955357142857 10.5  14.2857142857143 10.5  L 17.6897321428571 10.5  C 17.6525297619048 10.546875  17.6153273809524 10.587890625  17.578125 10.623046875  C 17.5409226190476 10.658203125  17.5074404761905 10.6875  17.4776785714286 10.7109375  L 17.4441964285714 10.7578125  L 10.4910714285714 17.7890625  C 10.3571428571429 17.9296875  10.1934523809524 18  10 18  C 9.80654761904762 18  9.64285714285714 17.9296875  9.50892857142857 17.7890625  L 2.54464285714286 10.734375  C 2.50744047619048 10.71875  2.42931547619048 10.640625  2.31026785714286 10.5  L 6.42857142857143 10.5  C 6.59226190476191 10.5  6.73921130952381 10.447265625  6.86941964285714 10.341796875  C 6.99962797619048 10.236328125  7.08333333333333 10.1015625  7.12053571428571 9.9375  L 7.90178571428571 6.64453125  L 10.0223214285714 14.4609375  C 10.0669642857143 14.6171875  10.1525297619048 14.74609375  10.2790178571429 14.84765625  C 10.405505952381 14.94921875  10.5505952380952 15  10.7142857142857 15  C 10.8705357142857 15  11.0119047619048 14.94921875  11.1383928571429 14.84765625  C 11.264880952381 14.74609375  11.3504464285714 14.6171875  11.3950892857143 14.4609375  L 13.0245535714286 8.77734375  L 13.6495535714286 10.08984375  Z M 18.5825892857143 1.453125  C 19.5275297619048 2.421875  20 3.765625  20 5.484375  C 20 6.6171875  19.6168154761905 7.7890625  18.8504464285714 9  L 14.7321428571429 9  L 13.4933035714286 6.41015625  C 13.4337797619048 6.27734375  13.3389136904762 6.171875  13.2087053571429 6.09375  C 13.0784970238095 6.015625  12.9427083333333 5.984375  12.8013392857143 6  C 12.4665178571429 6.0390625  12.2581845238095 6.21875  12.1763392857143 6.5390625  L 10.7366071428571 11.578125  L 8.54910714285714 3.5390625  C 8.50446428571429 3.3828125  8.41703869047619 3.25390625  8.28683035714286 3.15234375  C 8.15662202380952 3.05078125  8.00967261904762 3  7.84598214285714 3  C 7.68229166666667 3  7.53720238095238 3.052734375  7.41071428571429 3.158203125  C 7.28422619047619 3.263671875  7.20238095238095 3.3984375  7.16517857142857 3.5625  L 5.87053571428571 9  L 1.14955357142857 9  C 0.383184523809524 7.7890625  0 6.6171875  0 5.484375  C 0 3.765625  0.472470238095238 2.421875  1.41741071428571 1.453125  C 2.36235119047619 0.484375  3.66815476190476 0  5.33482142857143 0  C 5.79613095238095 0  6.26674107142857 0.0839843749999989  6.74665178571429 0.251953125000001  C 7.2265625 0.419921874999998  7.67299107142857 0.646484374999999  8.0859375 0.931640625  C 8.49888392857143 1.216796875  8.85416666666667 1.484375  9.15178571428571 1.734375  C 9.44940476190476 1.984375  9.73214285714286 2.25  10 2.53125  C 10.2678571428571 2.25  10.5505952380952 1.984375  10.8482142857143 1.734375  C 11.1458333333333 1.484375  11.5011160714286 1.216796875  11.9140625 0.931640625  C 12.3270089285714 0.646484374999999  12.7734375 0.419921874999998  13.2533482142857 0.251953125000001  C 13.7332589285714 0.0839843749999989  14.203869047619 0  14.6651785714286 0  C 16.3318452380952 0  17.6376488095238 0.484375  18.5825892857143 1.453125  Z " fill-rule="nonzero" fill="#a4a4a4" stroke="none" transform="matrix(1 0 0 1 18 71 )" />
  </g>
</svg>