<?xml version="1.0" encoding="utf-8"?>
<svg version="1.1" xmlns:xlink="http://www.w3.org/1999/xlink" width="81px" height="60px" xmlns="http://www.w3.org/2000/svg">
  <g transform="matrix(1 0 0 1 -1122 -147 )">
    <path d="M 53.578125 35.1136363636364  C 53.859375 34.7727272727273  54 34.4318181818182  54 34.0909090909091  C 54 33.6931818181818  53.8734375 33.3664772727273  53.6203125 33.1107954545455  C 53.3671875 32.8551136363636  53.04375 32.7272727272727  52.65 32.7272727272727  L 43 32.7272727272727  L 43 17.7272727272727  C 43.2 17.3579545454545  43.06640625 17.0383522727273  42.79921875 16.7684659090909  C 42.53203125 16.4985795454545  42.215625 16.3636363636364  41.85 16.3636363636364  L 33.75 16.3636363636364  C 33.384375 16.3636363636364  33.06796875 16.4985795454545  32.80078125 16.7684659090909  C 32.53359375 17.0383522727273  32.4 17.3579545454545  33 17.7272727272727  L 33 32  L 22.95 32  C 22.584375 32.7272727272727  22.26796875 32.8622159090909  22.00078125 33.1321022727273  C 21.73359375 33.4019886363636  21.6 33.7215909090909  21.6 34.0909090909091  C 21.6 34.4886363636364  21.7265625 34.8153409090909  21.9796875 35.0710227272727  L 36.8296875 50.0710227272727  C 37.0828125 50.3267045454545  37.40625 50.4545454545455  37.8 50.4545454545455  C 38.19375 50.4545454545455  38.5171875 50.3267045454545  38.7703125 50.0710227272727  L 53.578125 35.1136363636364  Z M 77.47734375 33.4730113636364  C 79.82578125 36.4417613636364  81 39.8295454545454  81 43.6363636363636  C 81 48.1534090909091  79.41796875 52.0099431818182  76.25390625 55.2059659090909  C 73.08984375 58.4019886363636  69.271875 60  64.8 60  L 18.9 60  C 13.696875 60  9.24609375 58.1321022727273  5.54765625 54.3963068181818  C 1.84921875 50.6605113636364  0 46.1647727272727  0 40.9090909090909  C 0 37.2159090909091  0.984375 33.8068181818182  2.953125 30.6818181818182  C 4.921875 27.5568181818182  7.565625 25.2130681818182  10.884375 23.6505681818182  C 10.828125 22.7982954545455  10.8 22.1875  10.8 21.8181818181818  C 10.8 15.7954545454545  12.909375 10.6534090909091  17.128125 6.39204545454546  C 21.346875 2.13068181818182  26.4375 0  32.4 0  C 36.7875 0  40.80234375 1.23579545454546  44.44453125 3.70738636363636  C 48.08671875 6.17897727272728  50.7375 9.46022727272728  52.396875 13.5511363636364  C 54.39375 11.7897727272727  56.728125 10.9090909090909  59.4 10.9090909090909  C 62.38125 10.9090909090909  64.9265625 11.9744318181818  67.0359375 14.1051136363636  C 69.1453125 16.2357954545455  70.2 18.8068181818182  70.2 21.8181818181818  C 70.2 23.9772727272727  69.6234375 25.9375  68.4703125 27.6988636363636  C 72.1265625 28.5795454545455  75.12890625 30.5042613636364  77.47734375 33.4730113636364  Z " fill-rule="nonzero" fill="#a2a2a2" stroke="none" transform="matrix(1 0 0 1 1122 147 )" />
  </g>
</svg>