<?xml version="1.0" encoding="utf-8"?>
<svg version="1.1" xmlns:xlink="http://www.w3.org/1999/xlink" width="12px" height="12px" viewBox="1004 380.5  12 12" xmlns="http://www.w3.org/2000/svg">
  <path d="M 1010 380.5  C 1013.36 380.5  1016 383.14  1016 386.5  C 1016 389.86  1013.36 392.5  1010 392.5  C 1006.64 392.5  1004 389.86  1004 386.5  C 1004 383.14  1006.64 380.5  1010 380.5  Z " fill-rule="nonzero" fill="#ffffff" stroke="none" />
  <path d="M 1010 381  C 1013.08 381  1015.5 383.42  1015.5 386.5  C 1015.5 389.58  1013.08 392  1010 392  C 1006.92 392  1004.5 389.58  1004.5 386.5  C 1004.5 383.42  1006.92 381  1010 381  Z " stroke-width="1" stroke="#797979" fill="none" />
  <path d="M 1010 389.5  C 1008.32 389.5  1007 388.18  1007 386.5  C 1007 384.82  1008.32 383.5  1010 383.5  C 1011.68 383.5  1013 384.82  1013 386.5  C 1013 388.18  1011.68 389.5  1010 389.5  " fill-rule="nonzero" fill="#797979" stroke="none" />
</svg>